<?xml version="1.0" encoding="utf-8"?>
<!DOCTYPE svg PUBLIC "-//W3C//DTD SVG 1.1//EN" "http://www.w3.org/Graphics/SVG/1.1/DTD/svg11.dtd" [
	<!ENTITY ns_extend "http://ns.adobe.com/Extensibility/1.0/">
	<!ENTITY ns_ai "http://ns.adobe.com/AdobeIllustrator/10.0/">
	<!ENTITY ns_graphs "http://ns.adobe.com/Graphs/1.0/">
	<!ENTITY ns_vars "http://ns.adobe.com/Variables/1.0/">
	<!ENTITY ns_imrep "http://ns.adobe.com/ImageReplacement/1.0/">
	<!ENTITY ns_sfw "http://ns.adobe.com/SaveForWeb/1.0/">
	<!ENTITY ns_custom "http://ns.adobe.com/GenericCustomNamespace/1.0/">
	<!ENTITY ns_adobe_xpath "http://ns.adobe.com/XPath/1.0/">
]>
<svg version="1.1" xmlns:x="&ns_extend;" xmlns:i="&ns_ai;" xmlns:graph="&ns_graphs;"
	 xmlns="http://www.w3.org/2000/svg" xmlns:xlink="http://www.w3.org/1999/xlink" x="0px" y="0px" viewBox="0 0 150 150"
	 style="enable-background:new 0 0 150 150;" xml:space="preserve">
<style type="text/css">
	.st0{fill:#FFFFFF;}
	.st1{fill:#020203;stroke:#020203;stroke-width:0.2511;stroke-miterlimit:10;}
	.st2{fill:#020203;}
</style>
<switch>
	<g i:extraneous="self">
		<g id="Laag_2">
			<circle class="st0" cx="74.78" cy="75.06" r="74.06"/>
		</g>
		<g id="Laag_9">
			<g>
				<path class="st1" d="M99.64,94.49c-1.16-0.31-2.07-0.56-2.79-1.65c-0.49-0.75-0.52-1.37-0.41-2.06c0.01-0.03,0.01-0.07,0.02-0.1
					c0-0.01,0-0.01,0-0.02c0.04-0.23,0.1-0.46,0.16-0.72c0.28-1.17,0.63-2.62-0.42-4.23c-0.63-0.98-1.49-1.8-2.41-2.32
					c-1.31-0.73-3.44-1.25-6.09,0.47c-4.63,3-4.8,9.03-0.44,15.75l0,0c2.54,3.92,5.7,6.18,8.84,6.56c1.82,0.22,3.64-0.19,5.33-1.29
					c3.37-2.18,4.04-4.89,1.99-8.05C102.38,95.23,100.86,94.82,99.64,94.49z M100.09,102.81c-3.34,2.16-7.56,0.38-10.75-4.55l0,0
					c-3.58-5.52-3.68-10.13-0.29-12.33c1.32-0.86,2.48-0.98,3.54-0.39c0.58,0.32,1.12,0.86,1.54,1.5c0.44,0.69,0.34,1.23,0.08,2.31
					c-0.06,0.23-0.11,0.49-0.17,0.76c0,0,0,0,0,0c0,0.01,0,0.02-0.01,0.03c-0.02,0.09-0.03,0.17-0.05,0.26
					c-0.78,4.08,1.52,8.25,1.62,8.43c0.2,0.36,0.55,0.58,0.93,0.62c0.25,0.03,0.52-0.02,0.75-0.15c0.6-0.33,0.81-1.09,0.48-1.68
					c-0.01-0.01-0.3-0.54-0.62-1.37c0.63,0.29,1.27,0.47,1.84,0.62c1.16,0.31,1.84,0.52,2.35,1.3
					C102.65,100.19,102.33,101.36,100.09,102.81z"/>
				<path class="st1" d="M116.89,86.2c-4.9-5.51-10.71-6.71-14.81-3.07c-3,2.67-3.25,5.45-0.75,8.26c1.28,1.44,2.84,1.61,4.1,1.74
					c1.19,0.13,2.13,0.23,3,1.21c0.82,0.93,0.76,1.73,0.67,2.84c-0.1,1.2-0.22,2.69,1.05,4.12c0.78,0.87,1.75,1.56,2.73,1.93
					c0.37,0.14,0.79,0.25,1.26,0.31c1.31,0.16,2.95-0.15,4.69-1.7C122.96,98.17,122.21,92.18,116.89,86.2z M117.2,99.99
					c-1.18,1.04-2.3,1.35-3.44,0.92c-0.62-0.23-1.24-0.68-1.75-1.25c-0.54-0.61-0.52-1.17-0.43-2.27c0.04-0.43,0.07-0.91,0.05-1.43
					c0.33,0.39,0.5,0.67,0.52,0.71c0.2,0.36,0.55,0.58,0.93,0.62c0.25,0.03,0.51-0.02,0.75-0.15c0.6-0.33,0.81-1.09,0.48-1.68
					c-0.09-0.16-2.28-4-7.4-4.62c-0.26-0.05-0.51-0.09-0.75-0.12c-0.15-0.02-0.3-0.03-0.44-0.05c-1.2-0.13-1.9-0.24-2.52-0.93
					c-1.59-1.79-1.45-2.99,0.54-4.77c2.97-2.64,7.41-1.52,11.31,2.87C119.41,92.76,120.22,97.3,117.2,99.99z"/>
			</g>
			<path class="st1" d="M98.52,81.71c7.37-0.18,12.05-3.84,11.91-9.32c-0.1-4.01-2.06-6-5.82-5.91c-1.92,0.05-3.06,1.13-3.98,2
				c-0.87,0.83-1.56,1.48-2.86,1.51c-1.24,0.03-1.81-0.54-2.59-1.32c-0.85-0.85-1.91-1.91-3.82-1.86c-1.17,0.03-2.32,0.33-3.24,0.84
				c-0.34,0.19-0.71,0.44-1.05,0.76c-0.97,0.9-1.79,2.35-1.74,4.68C85.46,78.61,90.51,81.91,98.52,81.71z M87.8,73.03
				c-0.04-1.57,0.46-2.63,1.52-3.22c0.57-0.32,1.32-0.51,2.09-0.53c0.82-0.02,1.23,0.35,2.01,1.13c0.3,0.3,0.65,0.64,1.06,0.96
				c-0.51,0-0.83-0.05-0.88-0.06c-0.4-0.08-0.8,0.05-1.08,0.31c-0.18,0.17-0.32,0.4-0.37,0.67c-0.13,0.67,0.31,1.32,0.98,1.45
				c0.18,0.04,4.53,0.84,8.31-2.66c0.2-0.16,0.39-0.33,0.57-0.5c0.11-0.1,0.22-0.2,0.32-0.3c0.88-0.83,1.41-1.3,2.33-1.32
				c2.39-0.06,3.22,0.82,3.29,3.5c0.1,3.98-3.63,6.64-9.5,6.78C91.88,79.4,87.9,77.08,87.8,73.03z"/>
			<g>
				<path class="st2" d="M80.28,70.97l-0.06-0.16c-0.35-0.98-0.7-1.99-1-3c-1.05-3.58,0.49-4.49,0.67-4.58
					c0.04-0.02,1.01-0.52,0.54-1.76c-0.35-0.92-1.57-1-1.58-1c-2-0.26-8.03-1.06-12.15,3.13c-4.14,4.21-7.08,6.85-12.85,8.17
					c-6.95,1.59-9.58,4.42-12.27,9.42c-1.03,1.91-3.6,2.94-6.32,4.03c-1.23,0.49-2.49,1-3.68,1.61c-4.38,2.26-8.57,10.35-9.16,13.16
					c-0.08,0.4,0.01,0.81,0.25,1.14c0.24,0.33,0.62,0.53,1.02,0.56c0.46,0.04,4.44,0.4,6.93,1.39c1.53,0.61,3.25,0.92,5.12,0.92
					c4.43,0,8.8-1.74,11.4-4.55c0.97-1.04,2.28-1.46,3.94-1.99c1.82-0.58,4.09-1.3,6.46-3.15l0.45-0.35l-0.24,0.51
					c-0.85,1.79-2,3.58-3.02,5.15l-0.02,0.03c-1.24,1.92-2.52,3.92-3.65,6.23c-2.85,5.87-2.38,13-2.36,13.31
					c0.04,0.58,0.44,1.08,1,1.25c0.56,0.17,1.18-0.04,1.52-0.49c0.78-1.01,3.14-1.64,5.43-2.25c2.64-0.7,5.34-1.42,7.31-2.94
					c3.46-2.68,3.75-5.01,3.98-6.87c0.16-1.34,0.27-2.22,1.58-3.28c5.18-4.2,7.64-8.61,6.92-12.41c-0.47-2.46,1.49-5.59,4.1-9.43
					C83.13,78.96,81.68,74.9,80.28,70.97z M65.06,73.03c1.01-0.63,2.1-0.98,3.09-0.98c0.02,0,0.05,0,0.07,0l0.19,0l-0.07,0.18
					c-0.69,1.74-1.41,3.54-2.29,4.78c-0.45,0.64-0.91,1.31-1.45,2.12l-0.05,0.08l-0.09-0.02c-0.72-0.17-1.25-0.53-1.58-1.05
					c-0.45-0.71-0.46-1.64-0.03-2.63C63.27,74.55,64.06,73.67,65.06,73.03z M62.79,71.2c-2.9,2.28-3.89,5.91-2.29,8.44
					c0.55,0.87,1.37,1.56,2.39,1.98l0.14,0.06l-0.08,0.13c-0.88,1.52-1.61,2.93-2.22,4.32c-2.83,4.85-5.51,6.55-7.27,7.4l-0.01,0.01
					c-2.74,1.03-5.84,0.48-5.87,0.47c-0.75-0.14-1.48,0.38-1.62,1.14c-0.07,0.4,0.04,0.82,0.31,1.15l0.09,0.11l-0.12,0.08
					c-0.42,0.3-0.8,0.63-1.16,1.02c-2.14,2.31-5.83,3.65-9.31,3.65c-1.45,0-2.85-0.23-4.1-0.73c-1.83-0.72-4.17-1.14-5.82-1.36
					l-0.17-0.02l0.07-0.16c1.3-3.12,4.37-8.15,7.13-9.58c1.07-0.55,2.27-1.03,3.43-1.5c3.08-1.23,6.25-2.5,7.76-5.31
					c2.43-4.52,4.41-6.63,10.42-8c3.14-0.72,5.73-1.84,8.15-3.53l0.66-0.47c1.76-1.31,3.38-2.86,5.42-4.94
					c1.19-1.21,2.75-1.99,4.64-2.33l0.45-0.08l-0.33,0.31c-1.49,1.4-2.72,3.24-3.88,5.81l-0.04,0.1l-0.1-0.02
					c-1.88-0.37-3.96,0.09-5.87,1.29C63.54,70.67,62.79,71.2,62.79,71.2z M78.21,81.18c-2.98,4.38-5.21,8.01-4.54,11.54
					c0.51,2.7-1.65,6.23-5.93,9.7c-2.18,1.77-2.42,3.63-2.6,5.12c-0.2,1.63-0.37,3.03-2.91,5c-1.52,1.18-3.95,1.83-6.3,2.45
					c-1.55,0.41-2.99,0.79-4.23,1.33l-0.2,0.09l0.01-0.22c0.13-2.45,0.59-6.01,2.07-9.06c1.05-2.16,2.28-4.07,3.47-5.92l0.03-0.05
					c1.85-2.88,3.6-5.58,4.44-8.82c1.17-4.47,3.27-8.69,6.81-13.69c1.08-1.51,1.83-3.4,2.63-5.4c1.2-3.02,2.44-6.12,4.85-8.1
					l0.23-0.19l-0.01,0.3c-0.04,1.01,0.11,2.14,0.47,3.35c0.34,1.16,0.75,2.3,1.11,3.31C79.09,76.04,79.91,78.69,78.21,81.18z"/>
				<path class="st2" d="M71.9,91.59c-0.17-0.75-0.93-1.23-1.69-1.06c-0.37,0.08-0.68,0.3-0.88,0.62c-0.2,0.32-0.26,0.7-0.18,1.06
					c0.79,3.46-1.67,5.02-3.25,5.41c-0.75,0.18-1.22,0.95-1.04,1.7c0.18,0.74,0.91,1.22,1.7,1.04
					C70.02,99.52,72.96,96.24,71.9,91.59z"/>
				<path class="st2" d="M77.65,79.6c0.5-1.82,0.2-3.74-0.86-5.56c-0.39-0.67-1.26-0.89-1.93-0.5c-0.67,0.39-0.9,1.26-0.5,1.93
					c0.68,1.16,0.88,2.3,0.58,3.39c-0.36,1.3-1.35,2.24-2.15,2.68c-0.68,0.37-0.93,1.23-0.55,1.92c0.25,0.45,0.72,0.73,1.24,0.73
					c0.24,0,0.47-0.06,0.68-0.17C75.84,83.07,77.15,81.42,77.65,79.6z"/>
				<path class="st2" d="M55.45,112.5c0.26,0.28,0.6,0.44,0.98,0.45c0.1,0,0.2,0.01,0.3,0.01c3.23,0,6.8-2.13,7.02-6.82
					c0.04-0.77-0.57-1.44-1.34-1.47c-0.02,0-0.04,0-0.06,0c-0.75,0-1.37,0.59-1.41,1.34c-0.16,3.34-2.92,4.17-4.39,4.13
					c-0.02,0-0.05,0-0.07,0c-0.33,0-0.67,0.13-0.92,0.36c-0.28,0.26-0.45,0.62-0.47,0.99C55.06,111.86,55.2,112.22,55.45,112.5z"/>
				<path class="st2" d="M39.88,87.67c-1.27,0-2.61,0.32-3.87,0.91c-3.68,1.74-5.54,5.57-4.14,8.54c0.91,1.94,2.96,3.09,5.48,3.09
					c1.25,0,2.55-0.3,3.75-0.87c3.81-1.8,5.59-5.47,4.14-8.54C44.31,88.84,42.31,87.67,39.88,87.67z M39.89,96.79L39.89,96.79
					c-0.82,0.39-1.7,0.6-2.54,0.6c-1.4,0-2.49-0.55-2.93-1.48c-0.72-1.54,0.56-3.73,2.8-4.79c0.89-0.42,1.81-0.64,2.66-0.64
					c0.78,0,2.19,0.2,2.81,1.52C43.57,93.87,41.95,95.82,39.89,96.79z"/>
				<path class="st2" d="M45.15,84.3c-0.41,1.88-0.01,3.7,1.1,4.99c1.04,1.21,2.58,1.88,4.35,1.88c1.9,0,3.93-0.79,5.55-2.18
					c1.62-1.39,2.7-3.14,3.04-4.94c0.34-1.79-0.09-3.49-1.2-4.79c-1.07-1.26-2.61-1.95-4.34-1.95c-1.89,0-3.86,0.8-5.56,2.25
					C46.58,80.86,45.53,82.54,45.15,84.3z M47.9,84.9c0.25-1.15,0.99-2.31,2.02-3.19c1.17-1,2.53-1.57,3.73-1.57
					c0.92,0,1.66,0.32,2.2,0.96c1.44,1.69,0.32,4.18-1.53,5.76c-1.12,0.96-2.47,1.5-3.72,1.5c-0.66,0-1.58-0.15-2.21-0.89
					C47.67,86.62,47.78,85.5,47.9,84.9z"/>
			</g>
			<g>
				<path class="st2" d="M106.74,44.51c-0.95-4.19-3.42-7.69-7.33-10.43c0.05-0.08,0.11-0.14,0.16-0.22
					c0.37-0.55,0.24-1.29-0.31-1.67c-0.25-0.17-5.89-3.98-13.67,2.39c-1.07-1.02-3.12-2.49-6.06-2.58c-0.67-0.02-1.23,0.5-1.25,1.17
					c-0.02,0.67,0.51,1.23,1.17,1.25c2.08,0.07,3.54,1.07,4.35,1.79c-7.09,7.09-3.99,13.15-3.85,13.42c0.15,0.28,0.41,0.5,0.72,0.59
					c0.06,0.02,0.12,0.03,0.17,0.04c0.26,0.04,0.52-0.01,0.75-0.13c0.07-0.04,0.13-0.08,0.21-0.12c2.27,4.25,5.46,7.14,9.52,8.54
					c1.06,0.37,2.11,0.61,3.12,0.76c4.43,0.64,8.18-0.55,9.46-1.19c0.42-0.21,0.78-0.54,1.04-0.94
					C105.9,55.68,108.09,50.49,106.74,44.51z M86.31,37.16c4.03-3.64,7.3-4.04,9.33-3.75c0.41,0.06,0.77,0.15,1.07,0.24
					c-1.94,2.32-3.53,2.55-4.02,2.56c-0.54,0.01-1.03,0.34-1.25,0.84c-0.22,0.51-0.12,1.11,0.26,1.52c2.02,2.21,1.39,4.84,1.02,5.89
					c-1.06,0.25-3.7,0.58-5.64-1.67c-0.37-0.43-0.95-0.6-1.48-0.44c-0.52,0.16-0.9,0.61-0.98,1.15c-0.08,0.63-0.54,2.13-2.93,3.75
					C81.34,45.35,81.47,41.54,86.31,37.16z M92.12,56.26c-3.52-1.22-6.3-3.78-8.29-7.59c1.4-1.1,2.22-2.2,2.67-3.13
					c3.38,2.57,7.36,1.11,7.55,1.04c0.28-0.11,0.52-0.32,0.65-0.59c0.09-0.18,1.96-4.02-0.21-7.7c0.97-0.35,2.14-1.04,3.38-2.33
					c3.49,2.4,5.68,5.44,6.5,9.08c0.56,2.47,0.39,4.9-0.03,6.86c-0.58-1.63-1.53-3.54-3.09-5.37c-0.43-0.51-1.2-0.57-1.7-0.13
					s-0.57,1.2-0.13,1.7c2.26,2.64,3.03,5.55,3.29,7.04c-1.07-0.21-3.24-0.81-5.88-2.48c-0.56-0.36-1.31-0.19-1.67,0.38
					c-0.36,0.56-0.19,1.31,0.38,1.67c1.61,1.02,3.06,1.67,4.27,2.11C97.71,57.18,94.89,57.22,92.12,56.26z"/>
				<path class="st2" d="M74.62,38.19c-2.12-3.93-9.83-4.79-16.16-1.81c-10.91,5.13-14.06,18.53-14.19,19.1
					c-0.01,0.04-0.01,0.08-0.01,0.11c0,0.03-0.01,0.05-0.01,0.08c-0.01,0.14,0,0.27,0.04,0.4c0.01,0.02,0.01,0.04,0.02,0.06
					c0.04,0.13,0.1,0.26,0.19,0.37c0,0,0.01,0,0.01,0.01c0,0,0,0.01,0.01,0.01c0.15,0.19,2.39,2.78,6.98,3.45
					c3.24,0.47,7.66-0.01,13.35-2.98c12.72-6.62,10.67-16.02,10.22-17.58C74.97,38.94,74.8,38.53,74.62,38.19z M59.48,38.57
					c2.99-1.41,6.25-1.78,8.79-1.41c2.04,0.3,3.62,1.08,4.22,2.18c1,1.86-0.73,5.57-8.62,10.42c0,0,0,0-0.01,0
					c-0.07,0.05-7.04,4.31-16.81,4.75C48.18,50.98,51.67,42.24,59.48,38.57z M63.73,54.85c-7.26,3.78-12.03,3.1-14.7,1.93
					c9.34-0.86,15.77-4.76,16.11-4.97c3.45-2.12,5.79-4.04,7.33-5.74C71.49,48.81,69.12,52.05,63.73,54.85z"/>
				<path class="st2" d="M66.01,43.97c1.84-1.25,3.52-1.35,3.57-1.35c0.66-0.02,1.19-0.58,1.17-1.24c-0.02-0.67-0.57-1.19-1.24-1.17
					c-0.1,0-2.39,0.09-4.86,1.77c-0.55,0.38-0.69,1.13-0.32,1.68c0.2,0.29,0.5,0.47,0.82,0.52C65.44,44.21,65.75,44.15,66.01,43.97z
					"/>
				<path class="st2" d="M61.04,46.64c-0.09,0.01-2.23,0.36-3.82,1.69c-0.51,0.43-0.58,1.19-0.15,1.7c0.2,0.24,0.47,0.38,0.75,0.42
					c0.33,0.05,0.68-0.04,0.95-0.27c1.06-0.89,2.61-1.15,2.64-1.15c0.66-0.1,1.11-0.72,1.01-1.38
					C62.31,46.99,61.7,46.53,61.04,46.64z"/>
				<path class="st2" d="M62.15,39.49c-0.1,0.01-2.43,0.33-4.45,1.99c-0.52,0.42-0.59,1.18-0.17,1.7c0.2,0.24,0.47,0.39,0.76,0.43
					c0.32,0.05,0.67-0.04,0.94-0.26c1.46-1.2,3.21-1.45,3.24-1.46c0.66-0.09,1.12-0.69,1.04-1.35
					C63.42,39.87,62.81,39.4,62.15,39.49z"/>
				<path class="st2" d="M54.08,47.28c-0.14,0.05-1.4,0.49-2.38,1.47c-0.47,0.47-0.47,1.24,0.01,1.71c0.19,0.19,0.43,0.3,0.68,0.34
					c0.37,0.05,0.75-0.06,1.03-0.34c0.58-0.58,1.41-0.88,1.43-0.88c0.63-0.21,0.97-0.9,0.76-1.53
					C55.39,47.42,54.71,47.08,54.08,47.28z"/>
			</g>
		</g>
	</g>
</switch>
</svg>
