<?xml version="1.0" encoding="utf-8"?>
<!-- Generator: Adobe Illustrator 22.1.0, SVG Export Plug-In . SVG Version: 6.00 Build 0)  -->
<svg version="1.1" xmlns="http://www.w3.org/2000/svg" xmlns:xlink="http://www.w3.org/1999/xlink" x="0px" y="0px"
	 viewBox="0 0 150 150" style="enable-background:new 0 0 150 150;" xml:space="preserve">
<style type="text/css">
	.st0{fill:#FFFFFF;}
</style>
<g id="Laag_2">
	<circle class="st0" cx="74.8" cy="75.1" r="74.1"/>
</g>
<g id="Laag_4">
	<path d="M57.2,108.3c0.4,1.6-0.4,4.9-1.6,7.3c-1.3,2.4-2.2,4.4-2,4.5c0.2,0.1,0.6,0.3,1,0.6c0.4,0.2,1.5-1,2.4-2.8
		c0.9-1.7,2.1-1.3,2.7,0.9c0.5,2.2,1.1,4,1.3,4c0.2,0,0.7-0.2,1.2-0.3c0.5-0.1,0.4-2.1-0.2-4.4c-0.5-2.3,0.5-3.5,2.2-2.5
		c1.8,1,3.3,1.6,3.4,1.4c0.1-0.2,0.3-0.6,0.6-1c0.2-0.4-1.5-1.7-3.8-3c-2.3-1.2-4.6-4.1-5.1-6.3c-0.5-2.3,0.3-6.1,1.8-8.5
		c1.5-2.4,3.4-1.6,4.2,1.9c0.8,3.5,1.6,6.3,1.8,6.2c0.2,0,0.7-0.2,1.2-0.3c0.4-0.1,0-3.5-0.9-7.6c-1-4.1-0.8-8.9,0.3-10.7
		c1.1-1.8,2.5-1.4,3,1c0.5,2.3,1.1,4.2,1.3,4.1c0.2,0,0.6-0.1,0.9-0.2c0.3-0.1,0.7-0.1,0.8-0.1c0.1,0,0.6,0.2,1.1,0.3
		c0.4,0.1,1.3-1.8,2-4.3c0.6-2.5,2-3,3.1-1.2c1.1,1.8,1,6.9-0.1,11.2c-1.1,4.3-1.9,7.9-1.7,8c0.2,0,0.7,0.2,1.1,0.3
		c0.4,0.1,1.6-2.8,2.5-6.5c1-3.7,2.9-4.7,4.4-2.2c1.5,2.5,2.1,6.5,1.5,9c-0.6,2.5-3,5.4-5.3,6.6c-2.3,1.2-4.1,2.3-4,2.4
		c0.1,0.2,0.3,0.6,0.5,1.1c0.2,0.4,1.8,0,3.6-0.9c1.8-0.9,2.8,0.2,2.2,2.6c-0.6,2.3-0.9,4.3-0.8,4.3c0.2,0,0.7,0.2,1.2,0.3
		c0.4,0.1,1.3-1.6,1.9-3.8c0.6-2.2,1.8-2.6,2.7-0.9c0.9,1.8,1.8,3.1,1.9,3l0.8-0.4l0.7-0.4c0.2-0.1-0.7-2.1-1.9-4.5
		c-1.2-2.4-1.9-5.9-1.4-7.7c0.5-1.8,2.8-0.1,5.1,3.9l1.1,1.9c2.3,4,4.4,7.1,4.6,7c0.2-0.1,0.6-0.4,1-0.6c0.4-0.2-1.2-3.7-3.5-7.6
		l-0.8-1.4c-2.3-4-2.9-6.9-1.3-6.5c1.6,0.4,4.2,2.6,5.7,4.8c1.5,2.2,2.9,4,3,3.9c0.2-0.1,0.6-0.4,1-0.7c0.4-0.3-0.2-1.8-1.3-3.4
		c-1.1-1.6-0.2-2.5,2-1.9c2.2,0.6,4.1,0.9,4.1,0.7c0-0.2,0.2-0.7,0.3-1.1c0.1-0.4-1.7-1.3-4-1.9c-2.3-0.6-2.9-2-1.2-3.1
		c1.7-1.1,2.9-2.2,2.8-2.3c-0.1-0.2-0.4-0.6-0.7-1c-0.3-0.4-2.2,0.5-4.4,1.9c-2.1,1.5-5.7,2.2-8,1.6c-2.2-0.6-5.3-3.1-6.7-5.5
		c-1.5-2.5,0.2-3.8,3.6-2.9c3.4,0.9,6.3,1.5,6.3,1.3c0-0.2,0.2-0.7,0.3-1.1c0.1-0.4-3.1-1.7-7.2-2.7c-4.1-1.1-8.3-3.4-9.4-5.2
		c-1.1-1.8-0.1-2.8,2.2-2.2c2.3,0.6,4.2,0.9,4.3,0.7l0.1-0.5l0.1-0.1l0.3-0.5l0.2-0.3l0.3-0.4c0.2-0.2-1.1-1.8-2.9-3.7
		c-1.8-1.8-1.5-3.3,0.6-3.3c2.1,0,6.4,2.6,9.5,5.8c3.1,3.2,5.8,5.7,5.9,5.6c0.1-0.1,0.5-0.5,0.8-0.8c0.3-0.3-1.6-2.8-4.3-5.5
		c-2.7-2.7-2.5-4.9,0.3-4.9c2.9,0,6.7,1.5,8.4,3.4c1.8,1.8,3.1,5.4,2.9,8c-0.2,2.6-0.2,4.7,0,4.7c0.2,0,0.7,0.1,1.2,0.1
		c0.5,0,1-1.6,1.1-3.6c0.1-2,1.6-2.2,3.3-0.5c1.7,1.7,3.2,3,3.3,2.9c0.1-0.1,0.5-0.5,0.8-0.8c0.3-0.3-0.7-1.9-2.3-3.6
		c-1.6-1.6-1.3-2.9,0.7-2.7c2,0.1,3.6,0.1,3.6-0.1c0-0.2,0-0.7,0.1-1.2c0-0.5-2.2-1-4.9-1.2c-2.7-0.2-6-1.4-7.3-2.8
		c-1.3-1.3,1.4-2.4,6-2.4l2.2,0c4.6,0,8.4-0.4,8.4-1.1c0-0.7-3.7-1.2-8.4-1.3l-1.6,0c-4.6,0-7.4-1-6.2-2.2c1.2-1.2,4.4-2.2,7.1-2.4
		c2.7-0.1,4.9-0.4,4.9-0.6c0-0.2,0-0.7-0.1-1.2c0-0.5-1.7-0.7-3.6-0.6c-2,0.1-2.2-1.1-0.6-2.7c1.6-1.6,2.6-3.3,2.2-3.8
		c-0.5-0.5-2.2,0.5-3.9,2.2c-1.7,1.7-3.2,1.4-3.3-0.6c-0.1-2-0.3-3.6-0.5-3.6c-0.2,0-0.7,0-1.2,0.1c-0.5,0-0.7,2.2-0.6,4.7
		c0.1,2.6-1.1,6-2.8,7.6c-1.7,1.6-5.3,2.9-8.2,2.9c-2.9,0-3.1-2.1-0.6-4.6c2.5-2.5,4.5-4.6,4.4-4.8c-0.1-0.1-0.5-0.5-0.8-0.8
		c-0.3-0.3-3,1.8-6,4.8c-3,2.9-7.2,5.3-9.3,5.3c-2.1,0-2.5-1.4-0.8-3.1c1.7-1.7,3-3.1,2.9-3.3l-0.3-0.3l-0.1-0.1l-0.3-0.5l-0.1-0.3
		c0,0-0.1-0.2-0.1-0.5c-0.1-0.3-2.1,0-4.6,0.6c-2.5,0.6-3.6-0.4-2.5-2.2c1.1-1.8,5.6-4.1,10-5.1c4.3-1,7.9-2,7.8-2.2
		c0-0.2-0.2-0.7-0.3-1.2c-0.1-0.4-3.2-0.1-7,0.8c-3.7,0.9-5.5-0.4-4-2.8c1.5-2.4,4.8-4.9,7.2-5.5c2.5-0.6,6.2,0.2,8.3,1.7
		c2.1,1.5,3.9,2.6,4,2.5c0.1-0.2,0.4-0.6,0.7-1c0.3-0.4-0.9-1.6-2.5-2.8c-1.6-1.2-1.1-2.6,1.3-3.1c2.3-0.5,4.2-1.1,4.2-1.3
		c0-0.2-0.2-0.7-0.3-1.2c-0.1-0.5-2-0.4-4.3,0.1c-2.2,0.5-3.1-0.4-2-2c1.1-1.6,2-3,1.8-3.1c-0.2-0.1-0.6-0.4-1-0.7
		c-0.4-0.3-2,1.3-3.5,3.5c-1.6,2.2-4.4,4.4-6.2,4.8c-1.8,0.4-1.3-2.4,1.1-6.3l1.1-1.8c2.4-3.9,4.3-7.2,4.1-7.3
		c-0.2-0.1-0.6-0.4-1-0.6c-0.4-0.2-2.7,2.8-5.1,6.7l-0.8,1.4c-2.4,3.9-4.7,5.8-5.1,4.2c-0.4-1.6,0.4-4.9,1.6-7.3
		c1.3-2.4,2.2-4.4,2-4.5c-0.2-0.1-0.6-0.3-1-0.6c-0.4-0.2-1.5,1-2.4,2.8c-0.9,1.7-2.1,1.3-2.6-0.9c-0.5-2.2-1.1-4-1.3-4
		c-0.2,0-0.7,0.2-1.2,0.3c-0.5,0.1-0.4,2.1,0.2,4.4c0.5,2.3-0.5,3.5-2.2,2.5c-1.8-1-3.3-1.6-3.4-1.4c-0.1,0.2-0.3,0.6-0.6,1
		c-0.2,0.4,1.5,1.7,3.7,3c2.3,1.2,4.6,4.1,5.1,6.3c0.5,2.3-0.3,6.1-1.8,8.5c-1.5,2.4-3.4,1.6-4.2-1.9c-0.8-3.5-1.6-6.3-1.8-6.2
		c-0.2,0-0.7,0.2-1.2,0.3c-0.4,0.1,0,3.5,0.9,7.6c1,4.1,0.8,8.9-0.3,10.7c-1.1,1.8-2.5,1.4-3-1c-0.5-2.3-1.1-4.2-1.3-4.1
		c-0.2,0-0.6,0.1-0.9,0.2c-0.3,0.1-0.7,0.1-0.8,0.1c-0.1,0-0.6-0.2-1.1-0.3c-0.4-0.1-1.3,1.8-2,4.3c-0.6,2.5-2,3-3.1,1.2
		c-1.1-1.8-1-6.9,0.1-11.2c1.1-4.3,1.9-7.9,1.7-8c-0.2,0-0.7-0.2-1.1-0.3c-0.4-0.1-1.6,2.8-2.5,6.5c-1,3.7-2.9,4.7-4.4,2.2
		c-1.5-2.5-2.1-6.5-1.5-8.9c0.6-2.5,3-5.4,5.3-6.6c2.3-1.2,4.1-2.3,4-2.4c-0.1-0.2-0.3-0.6-0.5-1.1c-0.2-0.4-1.8,0-3.6,0.9
		c-1.8,0.9-2.8-0.2-2.2-2.6c0.6-2.3,0.9-4.3,0.8-4.3c-0.2-0.1-0.7-0.2-1.1-0.3c-0.4-0.1-1.3,1.6-1.9,3.8c-0.6,2.2-1.8,2.6-2.7,0.8
		c-0.9-1.8-1.8-3.1-1.9-3c-0.2,0.1-0.6,0.3-1.1,0.5c-0.4,0.2,0.3,2.4,1.5,4.8c1.2,2.4,1.8,5.9,1.4,7.7c-0.5,1.8-2.8,0.1-5.1-3.9
		l-1.1-1.9c-2.3-4-4.4-7.1-4.5-7c-0.2,0.1-0.6,0.4-1,0.6c-0.4,0.2,1.2,3.7,3.5,7.6l0.8,1.4c2.3,4,2.9,6.9,1.3,6.5
		c-1.6-0.4-4.1-2.6-5.7-4.8c-1.5-2.2-2.9-4-3.1-3.9c-0.2,0.1-0.6,0.4-1,0.7c-0.4,0.3,0.2,1.8,1.3,3.4c1.1,1.6,0.2,2.5-2,1.9
		c-2.2-0.6-4.1-0.9-4.1-0.7c0,0.2-0.2,0.7-0.3,1.1c-0.1,0.4,1.7,1.3,4,1.9c2.3,0.6,2.9,2,1.2,3.1c-1.7,1.1-2.9,2.2-2.8,2.3
		c0.1,0.2,0.4,0.6,0.7,1c0.3,0.4,2.2-0.5,4.4-1.9c2.1-1.4,5.7-2.2,8-1.6c2.2,0.6,5.3,3.1,6.7,5.5c1.5,2.5-0.2,3.8-3.6,2.9
		c-3.4-0.9-6.3-1.5-6.3-1.3c0,0.2-0.2,0.7-0.3,1.1c-0.1,0.4,3.1,1.7,7.2,2.7c4.1,1.1,8.3,3.4,9.4,5.2c1.1,1.8,0.1,2.8-2.2,2.2
		c-2.3-0.6-4.2-0.9-4.3-0.7l-0.1,0.5l-0.1,0.1l-0.4,0.5l-0.1,0.3l-0.3,0.4c-0.2,0.2,1.1,1.8,2.9,3.7c1.8,1.8,1.5,3.3-0.6,3.3
		c-2.1,0-6.4-2.7-9.5-5.8c-3.1-3.2-5.8-5.7-5.9-5.6c-0.1,0.1-0.5,0.5-0.8,0.8c-0.3,0.3,1.6,2.8,4.3,5.5c2.7,2.7,2.5,4.9-0.3,4.9
		c-2.9,0-6.7-1.5-8.4-3.3c-1.8-1.8-3.1-5.4-2.9-8c0.2-2.6,0.2-4.7,0-4.7c-0.2,0-0.7-0.1-1.2-0.1c-0.5,0-1,1.6-1.1,3.6
		c-0.1,2-1.6,2.2-3.3,0.5c-1.7-1.7-3.2-3-3.3-2.9c-0.1,0.1-0.5,0.5-0.8,0.8c-0.3,0.3,0.7,1.9,2.3,3.6c1.6,1.6,1.3,2.9-0.6,2.7
		c-2-0.1-3.6-0.1-3.6,0.1c0,0.2-0.1,0.7-0.1,1.2c0,0.5,2.2,1,4.9,1.2c2.7,0.2,6,1.5,7.3,2.8c1.3,1.3-1.4,2.4-6,2.4l-2.2,0
		c-4.6,0-8.4,0.5-8.4,1.1c0,0.6,3.7,1.2,8.4,1.3l1.6,0c4.6,0,7.4,1,6.2,2.2c-1.2,1.2-4.4,2.2-7.1,2.4c-2.7,0.1-4.9,0.4-4.9,0.6
		c0,0.2,0,0.7,0.1,1.2c0,0.5,1.6,0.8,3.6,0.6c2-0.1,2.2,1.1,0.6,2.7c-1.6,1.6-2.9,3-2.7,3.2c0.1,0.1,0.5,0.5,0.8,0.8
		c0.3,0.3,2-0.8,3.7-2.5c1.7-1.7,3.2-1.4,3.3,0.6c0.1,2,0.4,3.6,0.5,3.6c0.2,0,0.7,0,1.2-0.1c0.5,0,0.7-2.2,0.6-4.7
		c-0.1-2.6,1.1-6,2.8-7.6c1.6-1.6,5.3-2.9,8.2-2.9c2.9,0,3.1,2.1,0.6,4.6c-2.5,2.5-4.5,4.6-4.4,4.8c0.1,0.1,0.5,0.5,0.8,0.8
		c0.3,0.3,3-1.8,6-4.8c3-2.9,7.2-5.3,9.3-5.3c2.1,0,2.5,1.4,0.8,3.1c-1.7,1.7-3,3.1-2.9,3.3l0.3,0.3l0,0.2l0.1,0.5l0.2,0.2
		c0.1,0,0.2,0.2,0.3,0.4c0.1,0.3,2.1,0,4.6-0.6c2.5-0.6,3.6,0.4,2.5,2.2c-1.1,1.8-5.6,4.1-10,5.1c-4.4,1-7.9,2-7.8,2.2
		c0,0.2,0.2,0.7,0.3,1.2c0.1,0.4,3.2,0.1,6.9-0.8c3.7-0.9,5.5,0.4,4,2.8c-1.5,2.4-4.8,4.9-7.2,5.5c-2.5,0.6-6.2-0.2-8.3-1.7
		c-2.1-1.5-3.9-2.6-4-2.5c-0.1,0.2-0.4,0.6-0.7,1c-0.3,0.4,0.9,1.6,2.5,2.8c1.6,1.2,1.1,2.6-1.3,3.1c-2.3,0.5-4.2,1.1-4.2,1.3
		c0,0.2,0.2,0.7,0.3,1.2c0.1,0.5,2,0.4,4.3-0.1c2.2-0.5,3.1,0.4,2,2c-1.1,1.6-2,3-1.8,3.1c0.2,0.1,0.6,0.4,1,0.7
		c0.4,0.3,2-1.3,3.5-3.5c1.6-2.2,4.4-4.4,6.2-4.8c1.8-0.4,1.3,2.4-1.1,6.3l-1.1,1.9c-2.4,3.9-4.3,7.2-4.1,7.3c0.2,0.1,0.6,0.4,1,0.6
		c0.4,0.2,2.7-2.8,5.1-6.7l0.8-1.4C54.6,108.6,56.9,106.7,57.2,108.3z M75.5,64c0.6,2.6,0.5,5.6-0.2,6.7c-0.7,1.1-1.8,1.2-2.4,0.2
		c-0.6-1-0.5-4,0.2-6.7C73.8,61.5,74.9,61.4,75.5,64z M77.2,72.1c0.6-0.9,2.9-2.2,5.1-2.7c2.2-0.5,2.8,0.3,1.3,1.8
		c-1.5,1.5-3.8,2.7-5.1,2.7C77.2,73.9,76.6,73.1,77.2,72.1z M69.9,73.8c-1.1,0-3.4-1.4-5-3c-1.6-1.6-1.2-2.5,0.9-2
		c2.1,0.5,4.3,1.9,5,3C71.4,72.9,71,73.8,69.9,73.8z M74.5,74.5l0.2,0.3l0,0.4l-0.2,0.3l-0.3,0.2l-0.4,0l-0.4-0.2l-0.2-0.3l0.4-0.2
		l-0.4,0l0-0.2l0.2-0.3l0.3-0.2l0.3,0L74.5,74.5z M77.3,78.3c-0.7-1.1-0.3-2,0.9-2c1.1,0,3.4,1.4,5,3c1.6,1.6,1.2,2.5-0.9,2
		C80.2,80.7,78,79.4,77.3,78.3z M70.8,78c-0.6,1-2.9,2.2-5.1,2.7c-2.2,0.5-2.8-0.3-1.3-1.8c1.5-1.5,3.8-2.7,5.1-2.7
		C70.9,76.2,71.4,77,70.8,78z M72.5,86.1c-0.6-2.6-0.5-5.6,0.2-6.7c0.7-1.1,1.8-1.2,2.4-0.2c0.6,1,0.5,4-0.2,6.7
		C74.2,88.6,73.1,88.7,72.5,86.1z"/>
</g>
</svg>
