<?xml version="1.0" encoding="utf-8"?>
<!DOCTYPE svg PUBLIC "-//W3C//DTD SVG 1.1//EN" "http://www.w3.org/Graphics/SVG/1.1/DTD/svg11.dtd" [
	<!ENTITY ns_extend "http://ns.adobe.com/Extensibility/1.0/">
	<!ENTITY ns_ai "http://ns.adobe.com/AdobeIllustrator/10.0/">
	<!ENTITY ns_graphs "http://ns.adobe.com/Graphs/1.0/">
	<!ENTITY ns_vars "http://ns.adobe.com/Variables/1.0/">
	<!ENTITY ns_imrep "http://ns.adobe.com/ImageReplacement/1.0/">
	<!ENTITY ns_sfw "http://ns.adobe.com/SaveForWeb/1.0/">
	<!ENTITY ns_custom "http://ns.adobe.com/GenericCustomNamespace/1.0/">
	<!ENTITY ns_adobe_xpath "http://ns.adobe.com/XPath/1.0/">
]>
<svg version="1.1" xmlns:x="&ns_extend;" xmlns:i="&ns_ai;" xmlns:graph="&ns_graphs;"
	 xmlns="http://www.w3.org/2000/svg" xmlns:xlink="http://www.w3.org/1999/xlink" x="0px" y="0px" viewBox="0 0 150 150"
	 style="enable-background:new 0 0 150 150;" xml:space="preserve">
<style type="text/css">
	.st0{fill:#FFFFFF;}
	.st1{fill:#020203;}
</style>
<switch>
	<g i:extraneous="self">
		<g id="Laag_2">
			<circle class="st0" cx="74.78" cy="75.06" r="74.06"/>
		</g>
		<g id="Laag_7">
			<path class="st1" d="M118.35,74.32c-0.6-1.39-1.2-2.64-1.8-3.7c-1.94-3.48-2.63-6.35-2.83-8.44c1.59-0.41,2.77-1.85,2.77-3.56
				v-1.97c0-2.04-1.66-3.69-3.69-3.69H97.38c-2.04,0-3.69,1.66-3.69,3.69v1.97c0,1.72,1.18,3.15,2.77,3.56
				c-0.2,2.09-0.89,4.97-2.83,8.44c-0.59,1.06-1.2,2.31-1.8,3.7c-1.75,4.07-2.63,8.49-2.63,13.12v22.91c0,1.77,0.61,3.4,1.62,4.71
				h-5.67V55.79c0-0.61,0.17-1.21,0.48-1.74l4.65-7.69l3.04,5c0.43,0.71,1.35,0.93,2.06,0.5c0.71-0.43,0.93-1.35,0.5-2.06l-4.1-6.75
				l0.01-6.03c0-1.34-0.52-2.6-1.46-3.55S88.12,32,86.78,32H60.14c-2.76,0-5.01,2.25-5.01,5.01v6.04l-5.36,8.87
				c-0.83,1.37-1.27,2.95-1.27,4.56v58.64H35.25c-3.11,0-5.64-2.53-5.64-5.64v-0.63h11.93c1.84,0,3.33-1.5,3.33-3.33v-9.66
				c0-1.84-1.5-3.33-3.33-3.33H29.61v-6.38h15.5c0.83,0,1.5-0.67,1.5-1.5s-0.67-1.5-1.5-1.5h-7.18l-2.93-14.24
				c-0.3-1.48-1.24-2.76-2.55-3.51c-1.32-0.75-2.89-0.89-4.32-0.4c-1.43,0.5-2.58,1.58-3.15,2.99c-0.57,1.4-0.51,2.98,0.17,4.34
				l5.43,10.83h-6.08c-0.83,0-1.5,0.67-1.5,1.5s0.67,1.5,1.5,1.5h2.12v7.88v13.32v2.13c0,4.77,3.88,8.64,8.64,8.64h14.76
				c0.13,0,0.26-0.02,0.38-0.05h33.22h0.04h13.26h16.38c4.25,0,7.71-3.46,7.71-7.71V87.44C120.99,82.8,120.1,78.39,118.35,74.32z
				 M33.86,83.02l-6.04-12.06c-0.3-0.59-0.32-1.25-0.07-1.86s0.73-1.07,1.35-1.28s1.28-0.16,1.86,0.17c0.57,0.33,0.96,0.86,1.1,1.51
				l2.8,13.64h-0.95C33.89,83.09,33.88,83.06,33.86,83.02z M41.54,95.51c0.18,0,0.33,0.15,0.33,0.33v9.66
				c0,0.18-0.15,0.33-0.33,0.33H29.61V95.51H41.54z M96.69,56.63c0-0.38,0.31-0.69,0.69-0.69h15.42c0.38,0,0.69,0.31,0.69,0.69v1.97
				c0,0.38-0.31,0.69-0.69,0.69H97.38c-0.38,0-0.69-0.31-0.69-0.69V56.63z M92.23,86.13h16.22c0.46,0,0.84,0.38,0.84,0.84v17.64
				c0,0.46-0.38,0.84-0.84,0.84H92.2V87.44C92.2,87,92.21,86.57,92.23,86.13z M58.14,37.01c0-1.11,0.9-2.01,2.01-2.01h26.63
				c0.54,0,1.04,0.21,1.42,0.59c0.38,0.38,0.59,0.89,0.59,1.42l-0.01,4.96H58.14V37.01z M57.48,44.97h30.13l-4.55,7.54
				c-0.08,0.14-0.15,0.29-0.22,0.43H52.67L57.48,44.97z M51.51,56.48c0-0.18,0.02-0.36,0.04-0.54h30.6v59.12H51.51V56.48z
				 M117.99,110.35c0,2.59-2.11,4.71-4.71,4.71H96.91c-2.59,0-4.71-2.11-4.71-4.71v-1.9h16.25c2.12,0,3.84-1.72,3.84-3.84V86.97
				c0-2.12-1.72-3.84-3.84-3.84H92.5c0.36-2.66,1.06-5.22,2.1-7.63c0.56-1.3,1.12-2.45,1.66-3.43c2.22-3.98,3-7.34,3.21-9.77h11.27
				c0.21,2.44,0.99,5.79,3.21,9.77c0.54,0.97,1.1,2.13,1.66,3.43c1.59,3.7,2.39,7.71,2.39,11.94V110.35z"/>
		</g>
	</g>
</switch>
</svg>
