<?xml version="1.0" encoding="UTF-8" standalone="no"?>
<!-- Generator: Adobe Illustrator 22.1.0, SVG Export Plug-In . SVG Version: 6.00 Build 0)  -->

<svg
   xmlns:dc="http://purl.org/dc/elements/1.1/"
   xmlns:cc="http://creativecommons.org/ns#"
   xmlns:rdf="http://www.w3.org/1999/02/22-rdf-syntax-ns#"
   xmlns:svg="http://www.w3.org/2000/svg"
   xmlns="http://www.w3.org/2000/svg"
   xmlns:sodipodi="http://sodipodi.sourceforge.net/DTD/sodipodi-0.dtd"
   xmlns:inkscape="http://www.inkscape.org/namespaces/inkscape"
   version="1.1"
   id="Laag_1"
   x="0px"
   y="0px"
   viewBox="0 0 150 150"
   style="enable-background:new 0 0 150 150;"
   xml:space="preserve"
   sodipodi:docname="new.svg"
   inkscape:version="0.92.5 (2060ec1f9f, 2020-04-08)"><metadata
   id="metadata3783"><rdf:RDF><cc:Work
       rdf:about=""><dc:format>image/svg+xml</dc:format><dc:type
         rdf:resource="http://purl.org/dc/dcmitype/StillImage" /></cc:Work></rdf:RDF></metadata><defs
   id="defs3781" /><sodipodi:namedview
   pagecolor="#ffffff"
   bordercolor="#666666"
   borderopacity="1"
   objecttolerance="10"
   gridtolerance="10"
   guidetolerance="10"
   inkscape:pageopacity="0"
   inkscape:pageshadow="2"
   inkscape:window-width="2560"
   inkscape:window-height="1017"
   id="namedview3779"
   showgrid="false"
   inkscape:zoom="5.6666667"
   inkscape:cx="75"
   inkscape:cy="75"
   inkscape:window-x="-8"
   inkscape:window-y="-8"
   inkscape:window-maximized="1"
   inkscape:current-layer="Laag_1" />
<style
   type="text/css"
   id="style3749">
	.st0{display:none;}
	.st1{display:inline;fill:#FFFFFF;}
	.st2{fill:#FFFFFF;stroke:#F7A82A;stroke-width:1.3057;stroke-miterlimit:10;}
	.st3{fill:#F7A82A;stroke:#1D1D1B;stroke-width:1.9586;stroke-miterlimit:10;}
	.st4{fill:#F7A82A;stroke:#1D1D1B;stroke-width:2.285;stroke-miterlimit:10;}
	.st5{fill:#FFFFFF;stroke:#FFFFFF;stroke-width:0.554;stroke-miterlimit:10;}
</style>
<g
   id="Laag_2_1_"
   class="st0">
	<circle
   class="st1"
   cx="74.8"
   cy="75.1"
   r="74.1"
   id="circle3751" />
</g>

<path
   class="st3"
   d="M116.9,76c0,2.3-3.3,4.2-3.7,6.4c-0.3,2.2,2.2,5.1,1.5,7.2c-0.7,2.1-4.5,3-5.5,4.9c-1,2,0.5,5.5-0.8,7.3  c-1.3,1.8-5.2,1.4-6.7,3c-1.6,1.6-1.2,5.4-3,6.7c-1.8,1.3-5.3-0.2-7.3,0.8c-2,1-2.8,4.8-4.9,5.5c-2.1,0.7-5-1.9-7.2-1.5  c-2.2,0.3-4.1,3.7-6.4,3.7c-2.3,0-4.2-3.3-6.4-3.7c-2.2-0.3-5.1,2.2-7.2,1.5c-2.1-0.7-3-4.5-4.9-5.5c-2-1-5.5,0.5-7.3-0.8  c-1.8-1.3-1.4-5.2-3-6.7c-1.6-1.6-5.4-1.2-6.7-3c-1.3-1.8,0.2-5.3-0.8-7.3c-1-2-4.8-2.8-5.5-4.9c-0.7-2.1,1.9-5,1.5-7.2  c-0.3-2.2-3.7-4.1-3.7-6.4c0-2.3,3.3-4.2,3.7-6.4c0.3-2.2-2.2-5.1-1.5-7.2c0.7-2.1,4.5-3,5.5-4.9c1-2-0.5-5.5,0.8-7.3  c1.3-1.8,5.2-1.4,6.7-3c1.6-1.6,1.2-5.4,3-6.7c1.8-1.3,5.3,0.2,7.3-0.8c2-1,2.8-4.8,4.9-5.5c2.1-0.7,5,1.9,7.2,1.5  c2.2-0.3,4.1-3.7,6.4-3.7c2.3,0,4.2,3.3,6.4,3.7c2.2,0.3,5.1-2.2,7.2-1.5c2.1,0.7,3,4.5,4.9,5.5c2,1,5.5-0.5,7.3,0.8  c1.8,1.3,1.4,5.2,3,6.7c1.6,1.6,5.4,1.2,6.7,3c1.3,1.8-0.2,5.3,0.8,7.3c1,2,4.8,2.8,5.5,4.9c0.7,2.1-1.9,5-1.5,7.2  C113.6,71.8,116.9,73.7,116.9,76z"
   id="path3756" />
<g
   id="g3766">
	<g
   id="g3764">
		<path
   class="st4"
   d="M112.6,39.6c-7.2,0-9.4,5.1-9.3,8.1l4.2,40.4c0.1,1.8,2,4.8,5.1,4.8c3.1,0,5.1-3,5.1-4.8l4.2-40.4    C122,44.7,119.8,39.6,112.6,39.6z"
   id="path3758" />
		<g
   id="g3762">
			<path
   class="st4"
   d="M122.2,106.4c0-5.3-4.3-9.6-9.6-9.6c-5.3,0-9.6,4.3-9.6,9.6c0,5.3,4.3,9.6,9.6,9.6     C117.9,116,122.2,111.7,122.2,106.4z"
   id="path3760" />
		</g>
	</g>
</g>
<g
   id="g3776">
	<g
   id="g3774">
		<path
   class="st5"
   d="M56.8,91.5c-0.6,0-1.3-0.5-1.5-1l-6.4-15.8v15.2c0,0.9-0.8,1.7-1.7,1.7h-1.3c-0.9,0-1.7-0.7-1.7-1.7V62.1    c0-0.9,0.8-1.7,1.7-1.7H47c0.6,0,1.3,0.5,1.5,1l6.4,15.8V62.1c0-0.9,0.7-1.7,1.7-1.7h1.3c0.9,0,1.7,0.7,1.7,1.7v27.7    c0,0.9-0.7,1.7-1.7,1.7H56.8z"
   id="path3768" />
		<path
   class="st5"
   d="M74.7,60.5c0.9,0,1.7,0.7,1.7,1.7v1.2c0,0.9-0.7,1.7-1.7,1.7h-7v8.6h5.8c0.9,0,1.7,0.7,1.7,1.7v1.2    c0,0.9-0.7,1.7-1.7,1.7h-5.8v8.7h7c0.9,0,1.7,0.7,1.7,1.7v1.2c0,0.9-0.7,1.7-1.7,1.7h-9.9c-0.9,0-1.7-0.7-1.7-1.7V62.1    c0-0.9,0.7-1.7,1.7-1.7H74.7z"
   id="path3770" />
		<path
   class="st5"
   d="M94.9,75.7l2.1-13.8c0.1-0.8,0.9-1.4,1.7-1.4h1.3c1,0,1.8,0.9,1.7,1.9l-4.4,27.7c-0.1,0.7-0.9,1.4-1.7,1.4    h-1.1c-0.7,0-1.5-0.6-1.6-1.3l-2.4-14.7l-2.5,14.7c-0.1,0.7-0.9,1.3-1.6,1.3h-1c-0.8,0-1.5-0.6-1.6-1.4l-4.5-27.7    c-0.1-1,0.6-1.9,1.6-1.9h1.3c0.8,0,1.5,0.6,1.7,1.4l2.1,13.9l2.4-14c0.1-0.7,0.9-1.3,1.6-1.3h1c0.7,0,1.5,0.6,1.6,1.3L94.9,75.7z"
   id="path3772" />
	</g>
</g>
</svg>