<svg xmlns="http://www.w3.org/2000/svg" xml:space="preserve" style="enable-background:new 0 0 150 150" viewBox="0 0 150 150"><style>.st1{fill:#020203}</style><switch><g><circle id="Laag_2" cx="74.78" cy="75.06" r="74.06" style="fill:#fff"/><g id="Laag_13"><path d="M119.39 50.05h-7.3v-4.07c0-3.9-3.22-7.13-7.13-7.13h-1.87v-3.73h5.26c4.24 0 8.31 1.87 11.2 5.09.34.34 1.19 1.02 2.38.17.68-.68.85-1.7.17-2.38-3.39-4.07-8.48-6.28-13.74-6.28H92.41c-1.02 0-1.7.68-1.7 1.7s.68 1.7 1.7 1.7h7.3v3.73h-1.87c-3.9 0-7.13 3.22-7.13 7.13v4.07h-7.3c-3.56 0-6.45 2.88-6.45 6.45v50.06c0 3.56 2.88 6.45 6.45 6.45h35.8c3.56 0 6.45-2.88 6.45-6.45V56.67c.18-3.57-2.71-6.62-6.27-6.62zm-25.28-4.07c0-2.04 1.7-3.73 3.73-3.73h7.13c2.04 0 3.73 1.7 3.73 3.73v4.07H94.11v-4.07zm28.34 60.74c0 1.7-1.36 3.05-3.05 3.05H83.42c-1.7 0-3.05-1.36-3.05-3.05V94.85h42.08v11.87zm0-15.27H80.37V71.77h42.08v19.68zm0-23.07H80.37V56.5c0-1.53 1.36-3.05 3.05-3.05h35.97c1.7 0 3.05 1.36 3.05 3.05v11.88zM61.21 78.97h-5.8a6.553 6.553 0 0 0-2.76-3.79 6.21 6.21 0 0 0-4.53-.91 8.77 8.77 0 0 0-5.93-2.5c-1.91-2.35-5.53-3.04-8.15-1.56-.83-.55-1.79-.84-2.75-.85a4.026 4.026 0 0 0-3.68-2.4c-2.22 0-4.02 1.81-4.02 4.02 0 1.6.95 3.04 2.4 3.68.02.98.31 1.93.85 2.75-.56.97-.85 2.05-.85 3.17v.03c-4.45 2.38-7.2 6.95-7.2 11.98v7.2c0 7.51 6.11 13.63 13.63 13.63h28.8c7.51 0 13.63-6.11 13.63-13.63v-7.2c-.01-7.51-6.12-13.62-13.64-13.62zm-32.75-7.11c-.2-.08-.42-.13-.64-.13-.05 0-.1 0-.15.01-.03 0-.1.02-.17.03a.792.792 0 0 1-.67-.77c0-.43.35-.78.78-.78.41 0 .74.32.79.55-.02.1-.05.23-.05.3-.03.27.01.54.11.79zm.88.87c.38.16.81.16 1.19.02.82-.31 1.61-.09 2.18.58.29.34.7.55 1.14.57.44.03.88-.12 1.21-.43.68-.63 1.63-.91 2.62-.75.99.16 1.83.71 2.29 1.53.31.55.94.89 1.52.82.02 0 .32-.03.4-.04.04-.01.08-.01.13-.01 1.67 0 3.24.76 4.32 2.1.43.53 1.16.74 1.81.51 1.05-.38 2.08-.27 2.9.31.84.59 1.34 1.58 1.34 2.66s-.5 2.07-1.34 2.66c-.83.58-1.86.69-2.91.31-.65-.23-1.38-.03-1.81.51-1.07 1.33-2.65 2.1-4.32 2.1-2.01 0-3.87-1.11-4.86-2.91a1.633 1.633 0 0 0-1.43-.84c-.42 0-.82.16-1.12.46-.6.57-1.38.89-2.2.89-.31 0-.63-.06-.99-.18l-.13.4v-.44a3.26 3.26 0 0 1-.82-.47c-.04-.03-.08-.07-.12-.1-.25-.21-.46-.45-.61-.7l-.36.23.29-.35a3.09 3.09 0 0 1-.36-.84v-.18l-.03-.03a3.12 3.12 0 0 1 .82-2.66c.3-.32.46-.76.43-1.21-.03-.44-.23-.86-.58-1.15-.45-.38-.71-.93-.71-1.5 0-.22.04-.44.13-.68.15-.39.14-.82-.02-1.19zm-2.46 11.08c.18.31.38.59.62.88l.08.09c.05.07.1.13.16.19.36.39.77.73 1.2 1.01.05.04.11.06.23.13.38.22.79.41 1.27.57.12.04.23.08.35.11.6.16 1.11.23 1.62.23 1.02 0 2.02-.24 2.92-.71a8.73 8.73 0 0 0 6.68 3.11 8.763 8.763 0 0 0 6.12-2.51c.36.06.73.1 1.1.1.14 0 .28-.01.42-.03l.15-.02c.29-.03.58-.05.86-.12.14-.03.28-.08.42-.13l.12-.04c.25-.08.49-.17.73-.28.14-.07.27-.14.49-.26.23-.13.45-.27.66-.43.14-.1.27-.21.4-.33.21-.19.41-.39.59-.6.1-.12.2-.23.3-.36.19-.25.34-.51.49-.78l.06-.1c.05-.08.09-.16.13-.25.13-.28.25-.6.35-.97l.03-.09h5.8c5.72 0 10.38 4.66 10.38 10.38v7.2c0 5.72-4.66 10.38-10.38 10.38h-28.8c-5.72 0-10.38-4.66-10.38-10.38v-7.2a10.35 10.35 0 0 1 4.83-8.79z" class="st1"/><path d="M61.21 87.02c3.08 0 5.58 2.5 5.58 5.58v7.2a1.62 1.62 0 1 0 3.24 0v-7.2c0-4.87-3.96-8.83-8.83-8.83-.9 0-1.62.73-1.62 1.62s.74 1.63 1.63 1.63zM32.41 108.62a1.62 1.62 0 1 0 0-3.24c-3.08 0-5.58-2.5-5.58-5.58v-7.2a1.62 1.62 0 1 0-3.24 0v7.2c-.01 4.87 3.95 8.82 8.82 8.82z" class="st1"/></g></g></switch></svg>