<?xml version="1.0" encoding="utf-8"?>
<!DOCTYPE svg PUBLIC "-//W3C//DTD SVG 1.1//EN" "http://www.w3.org/Graphics/SVG/1.1/DTD/svg11.dtd" [
	<!ENTITY ns_extend "http://ns.adobe.com/Extensibility/1.0/">
	<!ENTITY ns_ai "http://ns.adobe.com/AdobeIllustrator/10.0/">
	<!ENTITY ns_graphs "http://ns.adobe.com/Graphs/1.0/">
	<!ENTITY ns_vars "http://ns.adobe.com/Variables/1.0/">
	<!ENTITY ns_imrep "http://ns.adobe.com/ImageReplacement/1.0/">
	<!ENTITY ns_sfw "http://ns.adobe.com/SaveForWeb/1.0/">
	<!ENTITY ns_custom "http://ns.adobe.com/GenericCustomNamespace/1.0/">
	<!ENTITY ns_adobe_xpath "http://ns.adobe.com/XPath/1.0/">
]>
<svg version="1.1" xmlns:x="&ns_extend;" xmlns:i="&ns_ai;" xmlns:graph="&ns_graphs;"
	 xmlns="http://www.w3.org/2000/svg" xmlns:xlink="http://www.w3.org/1999/xlink" x="0px" y="0px" viewBox="0 0 150 150"
	 style="enable-background:new 0 0 150 150;" xml:space="preserve">
<style type="text/css">
	.st0{fill:#FFFFFF;}
	.st1{fill:#020203;}
</style>
<switch>
	<g i:extraneous="self">
		<g id="Laag_2">
			<circle class="st0" cx="74.78" cy="75.06" r="74.06"/>
		</g>
		<g id="Laag_8">
			<g>
				<path class="st1" d="M138.63,64.96l-31.85-5.18c-0.18-0.32-0.37-0.59-0.58-0.83c-0.14-0.15-0.26-0.33-0.35-0.52l28.25-3.95
					c0.75-0.1,1.28-0.85,1.2-1.68c-0.04-0.42-0.25-0.8-0.55-1.04c-0.29-0.23-0.64-0.33-0.99-0.28l-40.57,5.65
					c-0.75,0.05-1.33,0.77-1.28,1.59c0.02,0.42,0.2,0.81,0.49,1.07c0.26,0.24,0.6,0.36,0.95,0.35l2.2-0.29
					c0.2,0.39,0.43,0.75,0.72,1.09c0.05,0.05,0.09,0.1,0.13,0.15c0.59,0.76,0.51,1.89-0.18,2.6c-1.6,1.85-1.58,4.86,0.05,6.7
					c0.33,0.34,0.53,0.84,0.53,1.37c0.01,0.21-0.03,0.42-0.09,0.61l-0.93-1.01c-0.26-0.28-0.6-0.44-0.96-0.44H83.61
					c-0.56,0-1.06,0.38-1.27,0.95c-0.19,0.55-0.08,1.18,0.3,1.6l5.64,6.44l4.38,32.35h25.26l6.03-32.09l5.82-6.64
					c0.25-0.29,0.39-0.66,0.39-1.06c0-0.41-0.16-0.81-0.44-1.1c-0.25-0.26-0.58-0.4-0.93-0.4l-21.41,0
					c-0.14-0.97-0.55-1.86-1.18-2.57c-0.05-0.05-0.09-0.1-0.13-0.15c-0.58-0.76-0.5-1.9,0.2-2.61c0.66-0.77,1.07-1.79,1.15-2.88
					l30.79,5c0.76,0.12,1.46-0.41,1.58-1.18C139.89,65.8,139.38,65.08,138.63,64.96z M97.99,65.31L97.99,65.31L97.99,65.31
					L97.99,65.31L97.99,65.31z M98.4,65.58c0.91-1.1,1.3-2.62,1.06-4.12l1.19,0.19c0.22,0.7,0.04,1.48-0.48,2.01
					c-1.61,1.85-1.58,4.86,0.05,6.71c0.05,0.05,0.1,0.1,0.14,0.16c0.57,0.75,0.5,1.9-0.17,2.57c-0.47,0.56-0.82,1.24-1.01,1.97
					l-0.47-0.49c0.54-0.8,0.83-1.79,0.81-2.8c0.01-1.25-0.44-2.48-1.24-3.38c-0.05-0.05-0.09-0.1-0.13-0.15
					c-0.57-0.73-0.52-1.82,0.11-2.51l0,0L98.4,65.58L98.4,65.58z M99.91,80.98v28.26h-4.88l-3.79-28.26H99.91z M94.25,73.92
					l3.71,4.05H90.4l-3.55-4.05H94.25z M102.32,59.06C102.32,59.06,102.32,59.05,102.32,59.06c-0.02-0.03-0.04-0.06-0.06-0.08
					c-0.02-0.03-0.05-0.06-0.07-0.09l0.86-0.12c0.03,0.13,0.07,0.27,0.12,0.42L102.32,59.06z M102.24,68.4
					c-0.05-0.05-0.09-0.1-0.13-0.15c-0.59-0.76-0.5-1.9,0.2-2.61c0.8-0.93,1.22-2.2,1.17-3.52l1.22,0.2c0,0.53-0.2,1.04-0.56,1.4
					l-0.01,0.01c-1.61,1.85-1.59,4.85,0.03,6.69l0.29,0.32c0.44,0.75,0.31,1.77-0.29,2.38c-0.5,0.59-0.87,1.32-1.07,2.11l-1.33,1.59
					c-0.02-0.11-0.03-0.22-0.02-0.34c0.01-0.51,0.21-0.98,0.57-1.36C103.89,73.25,103.87,70.25,102.24,68.4z M102.65,109.25V80.98
					H121l-5.32,28.26H102.65z M104.49,77.97l3.3-4.05h17.78l-3.5,4.05H104.49z"/>
				<path class="st1" d="M82.04,105.99l-0.35-0.07c-0.59-0.12-1.06-0.22-1.4-0.44c-0.36-0.24-0.78-0.67-1.11-2.03
					c-0.5-2.06,0.19-4.94,1.21-8.8c0.98-3.69,2.21-8.29,2.21-13.51c0-2.28-0.31-4.89-0.88-7.35c-0.16-0.77-0.87-1.28-1.62-1.17
					c-0.79,0.1-1.36,0.85-1.26,1.68c0.01,0.06,0.02,0.13,0.03,0.17c0.54,2.3,0.83,4.67,0.83,6.67c0,4.78-1.12,9-2.12,12.73
					l-0.1,0.38c-0.99,3.72-1.85,6.93-1.12,9.93c0.43,1.79,1.23,3.07,2.35,3.81c0.86,0.57,1.71,0.73,2.4,0.86l0.34,0.07
					c0.67,0.14,0.89,0.25,1.09,0.53c0.15,0.21,0.35,0.82,0.45,1.89c-4,0.92-8.37,1.45-11.98,1.45c-5.28,0-9.97-1.18-13.89-2.36
					c1.17-0.64,2.16-1.3,2.97-1.96c0.62-0.51,0.72-1.46,0.23-2.1c-0.24-0.31-0.59-0.51-0.98-0.55c-0.38-0.05-0.76,0.07-1.07,0.32
					c-1.9,1.57-5.51,3.26-9.64,4.52c-4.5,1.37-9.16,2.13-13.11,2.13c-3.62,0-7.98-0.53-11.98-1.45c0.1-1.07,0.3-1.68,0.45-1.89
					c0.18-0.26,0.38-0.37,1.09-0.52l0.34-0.07c0.69-0.13,1.54-0.3,2.4-0.86c1.12-0.74,1.91-2.02,2.35-3.81
					c0.73-3.01-0.12-6.22-1.12-9.94l-0.1-0.38c-0.99-3.73-2.12-7.95-2.12-12.72c0-2.66,0.56-6.91,2.13-10.88
					c0.5,0.11,1,0.16,1.49,0.16c7.64,0,12.7-1.67,17.59-3.28c1.72-0.57,3.34-1.1,5.05-1.56c0.02,0,0.04-0.01,0.06-0.02
					c1.83,0.47,3.67,1.02,5.8,1.72c4.26,1.4,9.55,3.14,17.14,3.14c4.06,0,7.37-3.41,7.37-7.6s-3.3-7.6-7.37-7.6h-3.43
					c-4-2.39-6.13-5.4-8.19-8.31c-0.28-0.4-0.56-0.79-0.84-1.17c-1.31-1.81-2.5-3.25-4.05-4.34c-1.79-1.27-3.86-1.88-6.31-1.88
					c-2.46,0-4.52,0.62-6.31,1.88c-1.55,1.09-2.74,2.53-4.05,4.34c-0.28,0.38-0.56,0.78-0.84,1.17c-2.06,2.91-4.19,5.92-8.19,8.31
					h-3.43c-4.06,0-7.37,3.41-7.37,7.6c0,2.51,1.2,4.84,3.2,6.27c-1.48,3.73-2.36,8.22-2.36,12.05c0,5.21,1.23,9.82,2.21,13.52
					c1.03,3.85,1.71,6.73,1.21,8.79c-0.33,1.36-0.75,1.79-1.11,2.03c-0.34,0.22-0.81,0.32-1.42,0.45l-0.33,0.07
					c-0.89,0.19-2.02,0.55-2.82,1.66c-0.78,1.07-1.12,2.58-1.12,4.89c0,0.68,0.45,1.28,1.09,1.45c4.47,1.14,9.53,1.79,13.88,1.79
					c4.26,0,9.2-0.79,13.93-2.23c1.22-0.37,2.43-0.79,3.6-1.25c4.84,1.55,10.87,3.48,17.97,3.48c4.35,0,9.41-0.65,13.88-1.79
					c0.64-0.17,1.09-0.76,1.09-1.45c0-2.31-0.35-3.82-1.12-4.89C84.06,106.54,82.93,106.18,82.04,105.99z M38.86,55.23
					c2.46-2.16,4.12-4.51,5.6-6.6l0.09-0.13c0.24-0.33,0.47-0.66,0.69-0.97c1.14-1.58,2.15-2.81,3.34-3.65
					c1.33-0.94,2.77-1.36,4.67-1.36c1.9,0,3.34,0.42,4.67,1.36c1.19,0.84,2.2,2.07,3.34,3.65c0.26,0.36,0.52,0.72,0.79,1.1
					c1.48,2.08,3.14,4.44,5.6,6.6H38.86z M43.95,61.33c-0.38,0-0.74,0.15-1.01,0.42c-0.28,0.28-0.43,0.65-0.44,1.05
					c-0.01,0.82,0.64,1.5,1.46,1.51h0c0.95,0,1.89,0.04,2.85,0.13c-4.57,1.49-9.36,2.99-16.37,2.99c-2.5,0-4.46-2.03-4.46-4.61
					s1.96-4.61,4.46-4.61h45.64c2.5,0,4.46,2.03,4.46,4.61s-1.96,4.61-4.46,4.61c-7.2,0-12-1.58-16.24-2.97l-0.49-0.16
					C54.9,62.85,50.3,61.33,43.95,61.33z"/>
				<path class="st1" d="M51,97.88c0.57,0.19,1.15,0.24,1.67,0.28l0.07,0.01c0.17,0.02,0.33,0.03,0.48,0.05l0.08,0.01l0.05,0
					c4.58-0.37,8.43-1.75,11.77-4.21c0.72-0.53,1.4-1.33,1.91-2.26c0.36-0.65,0.42-1.32,0.18-1.88c-0.24-0.53-0.73-0.9-1.39-1.04
					l-0.72-0.15c-1.52-0.33-3.08-0.66-4.6-0.42c-3.15,0.5-6.1,1.71-8.77,3.61c-0.84,0.6-1.56,1.32-2.07,2.07
					c-0.51,0.75-0.65,1.58-0.41,2.33C49.52,97.02,50.13,97.6,51,97.88z M52.44,95.06c1.52-1.54,3.4-2.27,5.38-3.05
					c1.97-0.77,3.91-1.4,5.89-0.74C61.73,93.59,55.83,95.57,52.44,95.06z"/>
				<path class="st1" d="M51.78,89.67c0.27,0.17,0.58,0.25,0.93,0.25c0.43,0,0.93-0.13,1.47-0.4c0.66-0.32,1.32-0.81,2.02-1.5
					c2.01-1.98,3.58-4.36,4.66-7.08c0.55-1.39,1.01-2.97,1.41-4.83c0.31-1.44-0.13-2.65-1.19-3.31c-1.35-0.84-2.56-0.13-3.35,0.47
					c-0.59,0.45-1.35,1.06-1.96,1.81c-0.68,0.81-1.31,1.68-1.93,2.51l-0.04,0.05c-0.26,0.35-0.52,0.71-0.79,1.06l-0.02,0.03
					c-1.67,2.62-2.41,5.4-2.26,8.5C50.78,88.46,51.14,89.28,51.78,89.67z M55.72,79.89c1.04-1.64,2.02-3.19,3.58-4.21
					c-0.03,3.28-3.02,8.85-5.71,10.66C53.34,83.88,54.5,81.8,55.72,79.89z"/>
				<path class="st1" d="M49.8,84.23l-0.04-0.16c-0.13-0.35-0.25-0.71-0.36-1.06l-0.02-0.05c-0.29-0.88-0.59-1.79-1.05-2.63
					c-0.43-0.77-1.09-1.23-1.81-1.25c-0.62-0.04-1.21,0.3-1.59,0.89l-0.37,0.57c-0.88,1.34-1.8,2.73-2.17,4.3
					c-0.81,3.38-0.82,6.8-0.02,10.15c0.2,0.82,0.5,1.58,0.89,2.19c0.53,0.84,1.25,1.33,2.04,1.37c0.03,0,0.07,0,0.1,0
					c0.74,0,1.46-0.41,2.03-1.15c0.6-0.79,1.09-1.76,1.41-2.82C49.82,91.37,50.13,87.99,49.8,84.23z M45.36,95.07
					c-0.77-1.45-0.73-3.12-0.69-4.75l0.01-0.25c0.1-4.43,0.28-5.27,1.7-7.1C47.61,86.35,47.09,92.47,45.36,95.07z"/>
			</g>
		</g>
	</g>
</switch>
</svg>
