<?xml version="1.0" encoding="utf-8"?>
<!DOCTYPE svg PUBLIC "-//W3C//DTD SVG 1.1//EN" "http://www.w3.org/Graphics/SVG/1.1/DTD/svg11.dtd" [
	<!ENTITY ns_extend "http://ns.adobe.com/Extensibility/1.0/">
	<!ENTITY ns_ai "http://ns.adobe.com/AdobeIllustrator/10.0/">
	<!ENTITY ns_graphs "http://ns.adobe.com/Graphs/1.0/">
	<!ENTITY ns_vars "http://ns.adobe.com/Variables/1.0/">
	<!ENTITY ns_imrep "http://ns.adobe.com/ImageReplacement/1.0/">
	<!ENTITY ns_sfw "http://ns.adobe.com/SaveForWeb/1.0/">
	<!ENTITY ns_custom "http://ns.adobe.com/GenericCustomNamespace/1.0/">
	<!ENTITY ns_adobe_xpath "http://ns.adobe.com/XPath/1.0/">
]>
<svg version="1.1" xmlns:x="&ns_extend;" xmlns:i="&ns_ai;" xmlns:graph="&ns_graphs;"
	 xmlns="http://www.w3.org/2000/svg" xmlns:xlink="http://www.w3.org/1999/xlink" x="0px" y="0px" viewBox="0 0 150 150"
	 style="enable-background:new 0 0 150 150;" xml:space="preserve">
<style type="text/css">
	.st0{fill:#FFFFFF;}
	.st1{fill:#020203;}
</style>
<switch>
	<g i:extraneous="self">
		<g id="Laag_2">
			<circle class="st0" cx="74.78" cy="75.06" r="74.06"/>
		</g>
		<g id="Laag_5">
			<g>
				<path class="st1" d="M122.14,40.94l-4.87-1.12c-0.08-0.01-0.25-0.04-0.33-0.05l-6,0.26l-6.05-1.81
					c-0.08-0.01-0.08-0.01-0.17-0.02L87.2,35.53c-0.08-0.01-0.17-0.02-0.17-0.02l-9.89,0.05l-7.52-1.67
					c-0.42-0.06-0.76-0.02-1.05,0.19c-0.29,0.22-0.5,0.53-0.56,0.95l-1.54,10.35c-0.01,0.08-0.01,0.08-0.02,0.17
					c-0.02,0.77-0.61,19.5,1.49,27.62c-1.24,3.01-2.41,6.53-3.45,10.02c-0.43-0.47-0.98-0.81-1.6-0.97
					c-0.49-3.9-3.22-7.28-7.02-8.55c-0.27-2.12-1.15-4.01-2.45-5.52c0.93-0.37,1.76-0.99,2.32-1.83c0.69-1.03,0.96-2.2,0.86-3.29
					c1.1-0.33,2.07-1.02,2.71-1.98c0.64-0.96,0.91-2.13,0.8-3.28c1.1-0.33,2.07-1.02,2.71-1.98c0.73-1.09,0.97-2.42,0.72-3.71
					c-0.25-1.29-0.97-2.43-2.05-3.17c-0.96-0.65-2.11-0.92-3.25-0.81c-0.33-1.11-1.01-2.09-1.97-2.74
					c-0.96-0.65-2.11-0.92-3.25-0.81c-0.33-1.11-1.01-2.09-1.97-2.74c-0.96-0.65-2.11-0.92-3.25-0.81
					c-0.32-1.11-1.01-2.09-1.97-2.74c-2.23-1.51-5.27-0.92-6.77,1.33c-0.69,1.03-0.97,2.14-0.86,3.29c-1.1,0.33-2.07,1.02-2.71,1.98
					c-0.64,0.96-0.91,2.13-0.8,3.28c-1.1,0.33-2.07,1.02-2.71,1.98c-0.64,0.96-0.91,2.13-0.8,3.28c-1.1,0.33-2.07,1.02-2.71,1.98
					c-0.64,0.96-0.91,2.13-0.8,3.28c-1.1,0.33-2.07,1.02-2.71,1.98c-0.64,0.96-0.91,2.13-0.8,3.28c-1.1,0.33-2.07,1.02-2.71,1.98
					c-0.77,1.16-0.96,2.48-0.72,3.71c0.24,1.24,0.96,2.38,2.05,3.17c0.96,0.65,2.11,0.92,3.25,0.81c0.33,1.11,1.01,2.09,1.97,2.74
					c0.77,0.52,1.68,0.79,2.6,0.82c-1.12,1.45-1.85,3.19-2.08,5.05c-0.77,0.21-1.5,0.7-1.92,1.33c-0.59,0.89-0.7,2.16-0.28,3.15
					l6.34,14.94c0.52,1.58,2.07,2.65,3.84,2.65h2.88h4.07h4.55h4.07h2.88c1.64,0,3.14-0.97,3.83-2.49l2.35-5.6
					c-0.56,2.45-0.89,4.08-0.92,4.28l-0.01,0.08l-1.18,9.02c-0.09,0.67,0.41,1.35,1.06,1.53l7.51,1.76l0.08,0.01
					c0.08,0.01,0.08,0.01,0.17,0.02l4.49,0.21l11.57,1.99l14.29,2.04l0.08,0.01l7.18,0.42l8.06,0.89c0.75,0.11,1.43-0.48,1.53-1.16
					l1.35-10.2c0.01-0.08,0.04-0.25-0.04-0.35c-0.06-0.18-2.36-17.18-1.92-26.99c2.27-8.87,7.68-26.83,7.71-26.99
					c0.01-0.08,0.02-0.17,0.04-0.25l1.07-10.07C123.3,41.8,122.8,41.12,122.14,40.94z M29.28,84.97h0.6h3.79l3.84,16.72h-1.03
					c-0.62,0-1.14-0.34-1.33-0.89l-6.34-15.06c-0.08-0.23-0.08-0.3,0.06-0.52C29.02,84.99,29.11,84.97,29.28,84.97z M37.11,76.13
					c0.52-0.17,1.07-0.7,1.07-1.32c0.11-4.12,3.36-7.35,7.4-7.35c3.5,0,6.5,2.49,7.3,5.79c-1.66,0.25-3.55,1.31-4.65,3.86
					c-0.17,0.33-0.19,0.69-0.08,1.02c0.12,0.35,0.37,0.64,0.72,0.84c0.25,0.21,0.51,0.21,0.65,0.21c0.66,0,1.17-0.47,1.23-1.11
					c1.01-2.13,2.63-2.14,3.09-2.1c0.12,0.07,0.24,0.14,0.37,0.18c2.91,0.63,5.2,3.05,5.75,5.99h-3.24H56.6h-7.31H42.1H34.8h-3.46
					C31.98,79.12,34.22,76.75,37.11,76.13z M62.11,84.97c0.08,0,0.11,0.01,0.11,0.01c0.02,0.01,0.07,0.06,0.19,0.24
					c0.14,0.21,0.14,0.28,0.07,0.48l-6.27,14.9c-0.28,0.51-0.79,0.85-1.29,0.85h-1.01l3.88-16.48h3.84H62.11z M40.47,101.45
					L37.4,88.61l-0.86-3.64h4.25l1.13,16.48H40.47z M50.61,84.97h4.25l-0.84,3.57l-3.09,12.91h-1.45L50.61,84.97z M43.56,84.97h4.28
					l-1.14,16.72h-2L43.56,84.97z M29.47,74.06c-0.7-0.48-1.07-1.24-0.96-2.1c0.07-0.51-0.19-0.97-0.58-1.28
					c-0.45-0.3-0.95-0.32-1.39-0.06c-0.75,0.43-1.59,0.37-2.29-0.11c-1.02-0.69-1.29-2.09-0.59-3.06c0.47-0.71,1.23-1.08,2.08-0.97
					c0.51,0.07,0.96-0.19,1.27-0.58c0.21-0.32,0.26-0.66,0.2-0.99c-0.02-0.11-0.05-0.27-0.13-0.37c-0.42-0.75-0.37-1.6,0.11-2.31
					c0.47-0.71,1.23-1.08,2.08-0.97c0.51,0.07,0.96-0.19,1.27-0.58c0.3-0.45,0.31-0.95,0.06-1.41c-0.42-0.75-0.37-1.6,0.11-2.31
					c0.47-0.71,1.23-1.08,2.08-0.97c0.51,0.07,0.96-0.19,1.27-0.58c0.3-0.45,0.31-0.95,0.06-1.41c-0.42-0.75-0.37-1.6,0.11-2.31
					c0.47-0.71,1.23-1.08,2.08-0.97c0.51,0.07,0.96-0.19,1.27-0.58c0.3-0.45,0.31-0.95,0.06-1.41c-0.42-0.75-0.37-1.6,0.11-2.31
					c0.47-0.71,1.23-1.08,2.08-0.97c0.51,0.07,0.96-0.19,1.27-0.58c0.3-0.45,0.31-0.95,0.06-1.41c-0.42-0.75-0.37-1.6,0.11-2.31
					c0.68-1.08,2.06-1.35,3.08-0.66c0.7,0.48,1.07,1.24,0.96,2.1c-0.07,0.51,0.19,0.97,0.58,1.28c0.45,0.3,0.95,0.32,1.39,0.06
					c0.75-0.43,1.59-0.37,2.29,0.11c0.7,0.48,1.07,1.24,0.96,2.1c-0.07,0.51,0.19,0.97,0.58,1.28c0.45,0.3,0.95,0.32,1.39,0.06
					c0.75-0.43,1.59-0.37,2.29,0.11c0.7,0.48,1.07,1.24,0.96,2.1c-0.07,0.51,0.19,0.97,0.58,1.28c0.45,0.3,0.95,0.32,1.39,0.06
					c0.75-0.43,1.59-0.37,2.29,0.11c1.02,0.69,1.29,2.09,0.59,3.06c-0.47,0.71-1.23,1.08-2.08,0.97c-0.51-0.07-0.96,0.19-1.27,0.58
					c-0.3,0.45-0.31,0.95-0.06,1.41c0.42,0.75,0.37,1.6-0.11,2.31c-0.47,0.71-1.23,1.08-2.08,0.97c-0.51-0.07-0.96,0.19-1.27,0.58
					c-0.3,0.45-0.31,0.95-0.06,1.41c0.42,0.75,0.37,1.6-0.11,2.31c-0.47,0.71-1.23,1.08-2.08,0.97c-0.3-0.04-0.57,0.04-0.81,0.19
					c-1.15-0.64-2.43-1.06-3.79-1.22c0.13-0.09,0.25-0.2,0.34-0.34c0.4-0.6,0.24-1.42-0.35-1.82c-0.6-0.41-1.41-0.25-1.81,0.36
					c-0.38,0.57-0.24,1.33,0.28,1.75c-5.04,0.17-9.17,3.97-9.82,9.04c-0.72,0.23-1.4,0.55-2.03,0.93c-0.09-0.13-0.2-0.26-0.33-0.37
					c-0.45-0.3-0.95-0.32-1.39-0.06C31.01,74.6,30.17,74.54,29.47,74.06z M119.49,51.99c-0.49,1.65-5.59,18.62-7.81,27.15
					c-0.01,0.08-0.02,0.17-0.04,0.25c-0.37,8.11,1.03,20.59,1.69,25.58l-46.2-5.99c-0.75-0.11-1.43,0.48-1.54,1.24
					c-0.11,0.76,0.4,1.43,1.15,1.54l46.7,6.06l-0.99,7.68l-6.79-0.8l-7.18-0.42l-14.2-2.02l-11.65-2c-0.08-0.01-0.08-0.01-0.17-0.02
					l-4.4-0.2l-6.18-1.48l0.99-7.68c0.24-1.08,3.72-17.42,7.83-27.23c0.13-0.32,0.17-0.58,0.05-0.94
					c-1.58-5.72-1.66-18.54-1.53-24.36l40.94,5.84c0.75,0.11,1.42-0.4,1.53-1.16c0.11-0.76-0.4-1.43-1.15-1.54L69.25,45.6l1.31-8.75
					l6.2,1.4c0.08,0.01,0.17,0.02,0.33,0.05l9.89-0.05l17.27,2.63l6.12,1.9c0.17,0.02,0.33,0.05,0.42,0.06l6.09-0.25l3.47,0.75
					L119.49,51.99z"/>
				<path class="st1" d="M74.6,39.06c-0.5-0.07-0.98,0.29-1.05,0.8l-0.48,3.45c-0.07,0.51,0.29,0.99,0.79,1.06
					c0.5,0.07,0.98-0.29,1.05-0.8l0.48-3.45C75.46,39.61,75.1,39.13,74.6,39.06z"/>
				<path class="st1" d="M66.38,107.99c0.5,0.07,0.98-0.29,1.05-0.8l0.48-3.45c0.07-0.51-0.29-0.99-0.79-1.06
					c-0.5-0.07-0.98,0.29-1.05,0.8l-0.48,3.45C65.52,107.44,65.88,107.92,66.38,107.99z"/>
				<path class="st1" d="M78.69,39.65c-0.5-0.07-0.98,0.29-1.05,0.8l-0.48,3.45c-0.07,0.51,0.29,0.99,0.79,1.06
					c0.5,0.07,0.98-0.29,1.05-0.8l0.48-3.45C79.55,40.2,79.19,39.72,78.69,39.65z"/>
				<path class="st1" d="M70.47,108.58c0.5,0.07,0.89-0.3,1.05-0.8l0.48-3.45c0.07-0.51-0.29-0.99-0.79-1.06
					c-0.5-0.07-0.98,0.29-1.05,0.8l-0.48,3.45C69.61,108.02,69.97,108.5,70.47,108.58z"/>
				<path class="st1" d="M82.79,40.23c-0.5-0.07-0.98,0.29-1.05,0.8l-0.48,3.45c-0.07,0.51,0.29,0.99,0.79,1.06
					c0.5,0.07,0.98-0.29,1.05-0.8l0.48-3.45C83.65,40.78,83.29,40.3,82.79,40.23z"/>
				<path class="st1" d="M74.57,109.16c0.5,0.07,0.89-0.3,1.05-0.8l0.48-3.45c0.07-0.51-0.29-0.99-0.79-1.06
					c-0.5-0.07-0.98,0.29-1.05,0.8l-0.48,3.45C73.71,108.61,74.07,109.09,74.57,109.16z"/>
				<path class="st1" d="M86.88,40.81c-0.5-0.07-0.98,0.29-1.05,0.8l-0.48,3.45c-0.07,0.51,0.29,0.99,0.79,1.06
					c0.5,0.07,0.98-0.29,1.05-0.8l0.48-3.45C87.74,41.37,87.38,40.88,86.88,40.81z"/>
				<path class="st1" d="M78.58,109.73c0.5,0.07,0.98-0.29,1.05-0.8l0.48-3.45c0.07-0.51-0.29-0.99-0.79-1.06
					c-0.5-0.07-0.98,0.29-1.05,0.8l-0.48,3.45C77.72,109.18,78.08,109.66,78.58,109.73z"/>
				<path class="st1" d="M90.98,41.4c-0.5-0.07-0.98,0.29-1.05,0.8l-0.48,3.45c-0.07,0.51,0.29,0.99,0.79,1.06
					c0.5,0.07,0.98-0.29,1.05-0.8l0.48-3.45C91.84,41.95,91.48,41.47,90.98,41.4z"/>
				<path class="st1" d="M82.67,110.32c0.5,0.07,0.98-0.29,1.05-0.8l0.48-3.45c0.07-0.51-0.29-0.99-0.79-1.06
					c-0.5-0.07-0.98,0.29-1.05,0.8l-0.48,3.45C81.81,109.76,82.17,110.24,82.67,110.32z"/>
				<path class="st1" d="M95.07,41.98c-0.5-0.07-0.98,0.29-1.05,0.8l-0.48,3.45c-0.07,0.51,0.29,0.99,0.79,1.06
					c0.5,0.07,0.98-0.29,1.05-0.8l0.48-3.45C95.93,42.53,95.57,42.05,95.07,41.98z"/>
				<path class="st1" d="M86.76,110.9c0.5,0.07,0.98-0.29,1.05-0.8l0.48-3.45c0.07-0.51-0.29-0.99-0.79-1.06
					c-0.5-0.07-0.98,0.29-1.05,0.8l-0.48,3.45C85.9,110.35,86.26,110.83,86.76,110.9z"/>
				<path class="st1" d="M107.6,43.77c-0.5-0.07-0.98,0.29-1.05,0.8l-0.48,3.45c-0.07,0.51,0.29,0.99,0.79,1.06
					c0.5,0.07,0.89-0.3,1.05-0.8l0.48-3.45C108.46,44.32,108.1,43.84,107.6,43.77z"/>
				<path class="st1" d="M99.55,112.72c0.5,0.07,0.98-0.29,1.05-0.8l0.48-3.45c0.07-0.51-0.29-0.99-0.79-1.06
					c-0.5-0.07-0.98,0.29-1.05,0.8l-0.48,3.45C98.69,112.17,99.05,112.65,99.55,112.72z"/>
				<path class="st1" d="M99.16,42.56c-0.5-0.07-0.98,0.29-1.05,0.8l-0.48,3.45c-0.07,0.51,0.29,0.99,0.79,1.06
					c0.5,0.07,0.98-0.29,1.05-0.8l0.48-3.45C100.02,43.12,99.66,42.64,99.16,42.56z"/>
				<path class="st1" d="M90.86,111.48c0.5,0.07,0.98-0.29,1.05-0.8l0.48-3.45c0.07-0.51-0.29-0.99-0.79-1.06
					c-0.5-0.07-0.98,0.29-1.05,0.8l-0.48,3.45C90,110.93,90.36,111.41,90.86,111.48z"/>
				<path class="st1" d="M103.26,43.15c-0.5-0.07-0.98,0.29-1.05,0.8l-0.48,3.45c-0.07,0.51,0.29,0.99,0.79,1.06
					c0.5,0.07,0.98-0.29,1.05-0.8l0.48-3.45C104.12,43.7,103.76,43.22,103.26,43.15z"/>
				<path class="st1" d="M95.2,112.1c0.5,0.07,0.98-0.29,1.05-0.8l0.48-3.45c0.07-0.51-0.29-0.99-0.79-1.06
					c-0.5-0.07-0.98,0.29-1.05,0.8l-0.48,3.45C94.34,111.55,94.7,112.03,95.2,112.1z"/>
				<path class="st1" d="M112.11,44.41c-0.5-0.07-0.98,0.29-1.05,0.8l-0.48,3.45c-0.07,0.51,0.29,0.99,0.79,1.06
					c0.5,0.07,0.98-0.29,1.05-0.8l0.48-3.45C112.97,44.96,112.61,44.48,112.11,44.41z"/>
				<path class="st1" d="M103.81,113.33c0.5,0.07,0.98-0.29,1.05-0.8l0.48-3.45c0.07-0.51-0.29-0.99-0.79-1.06
					c-0.5-0.07-0.98,0.29-1.05,0.8l-0.48,3.45C102.95,112.78,103.31,113.26,103.81,113.33z"/>
				<path class="st1" d="M116.08,45.92l-0.48,3.45c-0.07,0.51,0.29,0.99,0.79,1.06c0.5,0.07,0.98-0.29,1.05-0.8l0.48-3.45
					c0.07-0.51-0.29-0.99-0.79-1.06C116.63,45.05,116.15,45.42,116.08,45.92z"/>
				<path class="st1" d="M108.82,114.04c0.5,0.07,0.98-0.29,1.05-0.8l0.48-3.45c0.07-0.51-0.29-0.99-0.79-1.06
					c-0.5-0.07-0.98,0.29-1.05,0.8l-0.48,3.45C107.96,113.49,108.32,113.97,108.82,114.04z"/>
				<path class="st1" d="M97.57,57.54c-5.17-1.42-9.31,1.34-11.17,7.34c-1.54,4.93-3.02,6.96-3.45,7.58
					c-0.1,0.07-0.19,0.14-0.2,0.23c-0.86,1.25-3.06,2.4-4.89,3.25c-0.92,0.47-1.74,0.87-2.4,1.29c-2.16,1.41-3.59,4.9-3.35,8.11
					c0.24,3.13,2.57,6.55,5.38,7.81c1.19,0.6,3.56,1.37,6.32,1.76c3.84,0.55,9.48,0.49,14.6-2.64c6.84-4.44,9.98-11.03,9.63-20.02
					C107.8,64.84,102.42,58.84,97.57,57.54z M97.27,90.66c-4.51,2.97-9.71,3-13.22,2.5c-2.59-0.37-4.79-1.11-5.83-1.6
					c-1.92-0.88-4.1-3.59-4.32-6.29c-0.24-2.53,0.92-5.37,2.52-6.43c0.56-0.35,1.38-0.75,2.21-1.15c2.11-1.07,4.5-2.28,5.58-3.93
					c0,0,0.1-0.07,0.11-0.16c0.52-0.7,2.11-2.88,3.7-8.15c1.41-4.61,4.2-6.87,7.88-6.35c0.33,0.05,0.75,0.11,1.07,0.24
					c1.86,0.49,3.81,1.86,5.43,3.79c0.78,2.04,2.16,6.47,1.87,11.6c-0.35,6.14-2.55,10.29-6.94,13.62
					c-4.48,3.4-8.44,3.09-10.81,2.93c-0.26,0.05-0.51,0.01-0.76-0.02c-2.28-0.15-5.92-1.53-6.69-2.16
					c-0.14-0.19-0.49-0.16-0.61,0.09c-0.19,0.14-0.15,0.49,0.08,0.61c0.84,0.72,4.07,1.96,6.41,2.29c0.25,0.04,0.42,0.06,0.69-0.07
					c0.26-0.05,0.51-0.01,0.76,0.02c2.45,0.18,6.66,0.52,11.43-3.1c4.66-3.46,6.9-7.87,7.28-14.25c0.2-3.45-0.31-6.54-0.91-8.87
					c1.05,1.94,1.75,4.18,1.83,6.51C106.44,80.63,103.54,86.66,97.27,90.66z"/>
				<path class="st1" d="M38.68,66c0.6,0.41,1.41,0.25,1.81-0.36c0.4-0.6,0.24-1.42-0.35-1.82c-0.6-0.4-1.41-0.25-1.81,0.36
					C37.92,64.78,38.08,65.59,38.68,66z"/>
				<path class="st1" d="M39.2,58.86c0.4-0.6,0.24-1.42-0.35-1.82c-0.6-0.41-1.41-0.25-1.81,0.36c-0.4,0.6-0.24,1.42,0.35,1.82
					C37.99,59.62,38.8,59.46,39.2,58.86z"/>
				<path class="st1" d="M33.72,66.99c0.4-0.6,0.24-1.42-0.35-1.82c-0.6-0.41-1.41-0.25-1.81,0.36c-0.4,0.6-0.24,1.42,0.35,1.82
					C32.51,67.75,33.32,67.59,33.72,66.99z"/>
				<path class="st1" d="M52.69,56.21c0.4-0.6,0.24-1.42-0.35-1.82c-0.6-0.41-1.41-0.25-1.81,0.36c-0.4,0.6-0.24,1.42,0.35,1.82
					C51.48,56.98,52.29,56.82,52.69,56.21z"/>
				<path class="st1" d="M44.6,50.74c0.4-0.6,0.24-1.42-0.35-1.82c-0.6-0.41-1.41-0.25-1.81,0.36c-0.4,0.6-0.24,1.42,0.35,1.82
					C43.39,51.5,44.2,51.34,44.6,50.74z"/>
				<path class="st1" d="M44.12,57.91c0.6,0.41,1.41,0.25,1.81-0.36c0.4-0.6,0.24-1.42-0.35-1.82c-0.6-0.41-1.41-0.25-1.81,0.36
					C43.37,56.69,43.52,57.51,44.12,57.91z"/>
			</g>
		</g>
	</g>
</switch>
</svg>
