<?xml version="1.0" encoding="utf-8"?>
<!DOCTYPE svg PUBLIC "-//W3C//DTD SVG 1.1//EN" "http://www.w3.org/Graphics/SVG/1.1/DTD/svg11.dtd" [
	<!ENTITY ns_extend "http://ns.adobe.com/Extensibility/1.0/">
	<!ENTITY ns_ai "http://ns.adobe.com/AdobeIllustrator/10.0/">
	<!ENTITY ns_graphs "http://ns.adobe.com/Graphs/1.0/">
	<!ENTITY ns_vars "http://ns.adobe.com/Variables/1.0/">
	<!ENTITY ns_imrep "http://ns.adobe.com/ImageReplacement/1.0/">
	<!ENTITY ns_sfw "http://ns.adobe.com/SaveForWeb/1.0/">
	<!ENTITY ns_custom "http://ns.adobe.com/GenericCustomNamespace/1.0/">
	<!ENTITY ns_adobe_xpath "http://ns.adobe.com/XPath/1.0/">
]>
<svg version="1.1" xmlns:x="&ns_extend;" xmlns:i="&ns_ai;" xmlns:graph="&ns_graphs;"
	 xmlns="http://www.w3.org/2000/svg" xmlns:xlink="http://www.w3.org/1999/xlink" x="0px" y="0px" viewBox="0 0 150 150"
	 style="enable-background:new 0 0 150 150;" xml:space="preserve">
<style type="text/css">
	.st0{fill:#FFFFFF;}
	.st1{fill:#020203;}
</style>
<switch>
	<g i:extraneous="self">
		<g id="Laag_2">
			<circle class="st0" cx="74.78" cy="75.06" r="74.06"/>
		</g>
		<g id="Laag_11">
			<g>
				<path class="st1" d="M128.92,86.44c-1.94-1.93-4.56-3.13-7.61-3.48l0.18-1.58c0.08-0.46-0.07-0.93-0.41-1.25
					c-0.34-0.32-0.81-0.45-1.35-0.32l-4.22,1.77l-0.93,0.35c-0.29-1.86-0.82-2.94-0.86-3.01c-0.34-0.68-1.17-0.96-1.86-0.62
					c-0.68,0.34-0.96,1.18-0.62,1.86c0.01,0.01,0.27,0.58,0.49,1.6l-0.27-0.09l-4.57-1.77c-0.24-0.05-0.49-0.03-0.72,0.04V59.46
					c0-0.51-0.28-0.97-0.74-1.2l-0.31-0.16l0.04-0.04c-0.48-0.4-1.38-1.4-1.38-3.38c0-0.67-0.51-1.21-1.15-1.3
					c-0.17-0.09-0.36-0.15-0.56-0.18c-0.09-0.01-8.74-1.03-13.19-7c-2.38-3.19-3.14-7.29-2.25-12.18c0.15-0.81-0.39-1.6-1.21-1.74
					c-0.81-0.15-1.6,0.39-1.74,1.21c-1.04,5.74-0.11,10.62,2.79,14.51c1.8,2.42,4.13,4.13,6.43,5.35H69.06
					c-0.74,0-1.34,0.6-1.34,1.34c0,2.51-1.45,3.45-1.64,3.57l0,0c-0.46,0.23-0.74,0.69-0.74,1.2v9.79c-1.17-2.9-2.75-5.57-4.7-7.9
					l-0.17-0.2l0.14-0.25c0.04-0.06,0.06-0.1,0.07-0.14l4.76-11.64c0.23-0.57,0.09-1.22-0.36-1.64c-0.44-0.42-1.11-0.52-1.66-0.25
					l-6.76,3.29l3.27-12.22c0.16-0.61-0.08-1.26-0.6-1.61c-0.53-0.35-1.22-0.33-1.72,0.05l-6.57,4.98l-0.07-0.11l-5.88-8.61
					c-0.26-0.39-0.76-0.64-1.24-0.64c0,0,0,0,0,0c-0.5,0.01-0.95,0.27-1.22,0.69l-5.26,8.35l-6.78-4.7
					c-0.52-0.36-1.22-0.35-1.72,0.03c-0.51,0.38-0.72,1.04-0.52,1.65l3.88,11.92l-7.47-3.1c-0.18-0.07-0.37-0.11-0.56-0.11
					c-0.41,0-0.8,0.17-1.09,0.47c-0.42,0.45-0.51,1.13-0.23,1.68l5.67,11.08l-0.17,0.19c-5.01,5.54-7.89,13.45-7.89,21.7
					c0,12.16,6.61,21.31,17.24,23.89l0.11,0.03c2.06,0.49,4.18,0.74,6.3,0.74c9.89,0,17.51-4.85,21.2-12.8v6.4
					c-0.13,0.67,0.17,1.25,0.72,1.51c0.19,0.11,1.67,1.06,1.67,3.58c0,0.74,0.6,1.34,1.34,1.34h29.05c0.48,0.52,0.99,1.03,1.55,1.49
					c3.46,2.84,8.38,4.41,13.83,4.41c11.33,0,19.25-6.54,19.25-15.89C132.74,92.56,131.42,88.94,128.92,86.44z M55.98,41.71
					l-2.8,10.52l-2.76,1.34l-0.05-0.11l-2.6-5.52L55.98,41.71z M43.94,36.54l4.76,6.98l-2.22,1.69l-1.23-2.61
					c-0.24-0.51-0.77-0.85-1.34-0.85c-0.58,0-1.1,0.34-1.34,0.86l-0.84,1.82l-1.92-1.33L43.94,36.54z M40.48,47.15l-0.04,0.1
					l-2.51,5.44l-2.11-0.88l-0.02-0.05l-3.29-10.12L40.48,47.15z M27.46,96.02l-0.26-0.38c-1.75-2.57-2.9-5.6-3.43-9l-0.03-0.21
					l0.16-0.13c0.03-0.03,0.07-0.05,0.11-0.08l2.82-2.87l0.09,0.09l6.58,6.39l-0.09,0.09L27.46,96.02z M44.1,78.94l-6.66-6.47
					l7.36-7.55l6.75,6.38l-0.09,0.09L44.1,78.94z M44.16,83.12l6.81,6.62l-0.09,0.09l-6.4,6.54l-6.8-6.6L44.16,83.12z M42.04,81.06
					l-0.09,0.09l-6.39,6.55l-6.67-6.48l0.09-0.09l6.39-6.55L42.04,81.06z M37.65,103.07c-3.08-0.86-5.77-2.39-8-4.53l-0.27-0.26
					l6.25-6.41l6.79,6.6l-0.09,0.09l-4.46,4.56L37.65,103.07z M44.14,103.92c-0.72,0-1.4-0.04-1.97-0.08l-0.81-0.06l3.18-3.25
					l1.27,1.24c0.56,0.55,1.54,0.53,2.09-0.03c0.57-0.58,0.55-1.52-0.03-2.09l-1.26-1.23l0.09-0.09l6.4-6.54l3.17,3.08
					c0.26,0.26,0.63,0.4,1.03,0.4c0.01,0,0.01,0,0.02,0c0.4,0,0.78-0.16,1.04-0.43c0.27-0.28,0.42-0.66,0.42-1.05
					s-0.17-0.76-0.45-1.04l-3.16-3.07l0.09-0.09l5.14-5.25c0.28-0.28,0.43-0.66,0.42-1.05c0-0.39-0.16-0.76-0.44-1.04
					c-0.58-0.57-1.52-0.56-2.09,0.02l-5.23,5.35L46.22,81l0.09-0.09l7.39-7.58l4.62,4.36c0.27,0.26,0.66,0.41,1.06,0.39
					c0.4-0.01,0.77-0.17,1.03-0.45c0.27-0.29,0.42-0.66,0.4-1.06c-0.01-0.39-0.17-0.76-0.46-1.03l-4.58-4.34l1.7-1.74
					c0.28-0.28,0.42-0.66,0.42-1.05c0-0.39-0.16-0.76-0.45-1.04c-0.29-0.29-0.66-0.45-1.05-0.42c-0.4,0-0.76,0.16-1.04,0.45
					l-1.73,1.78l-6.75-6.38l0.21-0.27c0.46-0.59,0.41-1.43-0.12-1.94c-0.54-0.53-1.39-0.55-1.98-0.04l-0.26,0.22l-1.79-1.69
					c-0.27-0.25-0.65-0.4-1.03-0.4c-0.01,0-0.02,0-0.03,0c-0.39,0.01-0.76,0.17-1.03,0.46c-0.27,0.29-0.41,0.66-0.4,1.06
					c0.01,0.39,0.18,0.76,0.46,1.03l1.76,1.66l-0.09,0.09l-7.24,7.43l-3.12-3.03c-0.28-0.27-0.68-0.43-1.05-0.42
					c-0.4,0.01-0.77,0.16-1.04,0.45c-0.27,0.28-0.42,0.65-0.42,1.05s0.16,0.76,0.45,1.04l3.11,3.02l-0.09,0.09l-9.73,9.98l0.02-0.94
					c0.16-9.17,4.19-17.68,10.52-22.21c0.66-0.48,0.82-1.4,0.34-2.06c-0.48-0.66-1.4-0.82-2.06-0.34c-0.42,0.3-0.82,0.62-1.12,0.87
					l-0.36,0.29l-3.44-6.72l10.77,4.48c0.74,0.31,1.57-0.02,1.91-0.75l3.91-8.49l4.45,9.46c0.17,0.36,0.48,0.63,0.84,0.76
					c0.37,0.13,0.79,0.11,1.13-0.06l10.89-5.29l-2.98,7.28l-0.4-0.35c-0.43-0.38-0.87-0.74-1.32-1.08c-0.31-0.24-0.7-0.34-1.09-0.29
					c-0.39,0.05-0.74,0.26-0.98,0.57c-0.24,0.31-0.34,0.7-0.29,1.09c0.05,0.39,0.26,0.74,0.57,0.98
					c6.21,4.72,10.06,13.32,10.06,22.44C64.83,95.41,56.71,103.92,44.14,103.92z M108.77,85.35l-0.34-1.52l3.57,0.77
					c-0.01,0.38-0.03,0.77-0.07,1.19c-0.04,0.38,0.12,0.76,0.42,1.06c0.13,0.13,0.29,0.23,0.46,0.31l0,0.15h0.5
					c0.02,0,0.04,0,0.06,0l0.49-0.01l0-0.1c0.45-0.19,0.77-0.62,0.82-1.13c0.05-0.5,0.07-0.98,0.08-1.44l3.62-0.88l-0.29,1.57
					c-0.1,0.53,0.13,1.07,0.49,1.32l1.01,1.05l-3.36,0.02c-0.37,0.05-0.7,0.25-0.92,0.55l-1.78,2.43l-1.87-2.41
					c-0.23-0.29-0.55-0.48-0.99-0.53l-3.37,0.04l0.94-1.03C108.69,86.44,108.89,85.89,108.77,85.35z M103.05,87.81
					c-0.45,0.34-0.65,0.91-0.51,1.46c0.14,0.55,0.6,0.95,1.21,1.02l6.1,0.17l2.63,3.38c0.26,0.34,0.66,0.54,1.11,0.54
					c0.43-0.01,0.84-0.22,1.1-0.57l2.5-3.42l6.11-0.28c0.57-0.08,1.02-0.49,1.15-1.05s-0.08-1.12-0.51-1.42l-1.98-1.77
					c2.01,0.39,3.71,1.25,5,2.53c1.97,1.97,3.01,4.91,3.01,8.51c0,7.73-6.78,13.12-16.48,13.12s-16.48-5.4-16.48-13.12
					c0-3.73,1.05-6.74,3.03-8.69c1.33-1.32,3.05-2.12,5.11-2.4L103.05,87.81z M103.49,83.33c-2.1,0.5-3.94,1.49-5.39,2.92
					c-1.41,1.39-2.44,3.18-3.08,5.25H80.73V68.75h22.76V83.33z M68.01,99.46V60.8h27.28c0.74,0,1.34-0.6,1.34-1.34
					s-0.6-1.34-1.34-1.34H69.65l0.15-0.35c0.21-0.48,0.37-1,0.46-1.54l0.04-0.2h30.39c0.21,0.04,0.38,0.07,0.53,0.09l0.02,0.11
					c0.36,1.97,1.38,3.18,2.16,3.85l0.09,0.07v5.91h-24.1c-0.74,0-1.34,0.6-1.34,1.34v25.44c0,0.74,0.6,1.34,1.34,1.34h15.05
					c-0.12,0.87-0.19,1.78-0.19,2.73c0,0.87,0.09,1.71,0.23,2.54H68.01z M70.3,104.23l-0.04-0.21c-0.1-0.54-0.25-1.06-0.46-1.54
					l-0.15-0.35h25.53c0.27,0.72,0.6,1.42,0.98,2.09H70.3z"/>
				<path class="st1" d="M125.69,98.19c-0.04,0.38,0.12,0.76,0.42,1.06c0.13,0.13,0.29,0.23,0.46,0.31l0,0.15h0.5
					c0.02,0,0.04,0,0.06,0l0.49-0.01l0-0.1c0.45-0.19,0.77-0.62,0.82-1.13c0.42-4.22-0.82-6.85-0.96-7.14
					c-0.34-0.68-1.18-0.95-1.86-0.62c-0.33,0.17-0.58,0.45-0.69,0.8s-0.09,0.73,0.08,1.06C125.02,92.59,126.04,94.69,125.69,98.19z"
					/>
				<path class="st1" d="M125.94,103.01c0.82,0,1.48-0.66,1.48-1.48s-0.66-1.48-1.48-1.48s-1.48,0.66-1.48,1.48
					S125.13,103.01,125.94,103.01z"/>
			</g>
		</g>
	</g>
</switch>
</svg>
